<?xml version="1.0" encoding="UTF-8"?>
<!DOCTYPE svg PUBLIC "-//W3C//DTD SVG 1.1//EN" "http://www.w3.org/Graphics/SVG/1.1/DTD/svg11.dtd">
<!-- Creator: CorelDRAW 2019 (64 Bit) -->
<svg xmlns="http://www.w3.org/2000/svg" xml:space="preserve" width="90mm" height="26.175mm" version="1.1" style="shape-rendering:geometricPrecision; text-rendering:geometricPrecision; image-rendering:optimizeQuality; fill-rule:evenodd; clip-rule:evenodd"
viewBox="0 0 8991.04 2614.89"
 xmlns:xlink="http://www.w3.org/1999/xlink">
 <defs>
  <style type="text/css">
   <![CDATA[
    .fil5 {fill:#373435}
    .fil1 {fill:#FFF212}
    .fil2 {fill:#EC268F}
    .fil0 {fill:#00AFEF}
    .fil4 {fill:#373435;fill-rule:nonzero}
    .fil3 {fill:#00AFEF;fill-rule:nonzero}
   ]]>
  </style>
 </defs>
 <g id="Camada_x0020_1">
  <metadata id="CorelCorpID_0Corel-Layer"/>
  <g id="_2354380228800">
   <path class="fil0" d="M705.24 1426.63c103.74,115.63 257.43,188.84 428.93,188.84 155.87,0 296.96,-60.44 399.3,-158.23l333.23 336.37c-188.84,184.7 -447.34,298.54 -732.52,298.54 -290.92,0 -554.14,-118.51 -743.91,-309.83l314.97 -355.69z"/>
   <path class="fil1" d="M1134.18 0c295.88,0 563.07,122.59 753.51,319.64l-364.87 359.03c-101.34,-91.94 -238.1,-148.31 -388.64,-148.31 -137.87,0 -264.16,47.3 -362.31,125.88l-372.79 -355.18c189.09,-186.17 448.63,-301.06 735.11,-301.06z"/>
   <path class="fil2" d="M771.87 656.25c-59.33,47.52 -108.37,106.44 -143.42,173.29l736.18 0 0 424.31 -763.94 0c23.57,63.96 59.33,122.4 104.56,172.78l-314.97 355.69c-187.55,-189.03 -303.4,-449.08 -303.4,-736.22 0,-291.63 119.52,-555.31 312.2,-745.03l372.79 355.18z"/>
   <path class="fil3" d="M2326.79 2038.53l0 -1291.85c0,-225.86 67.66,-406.92 203.46,-542.72 135.32,-135.81 315.86,-203.94 541.24,-203.94 224.82,0 396.44,66.17 515.32,197.98 118.88,131.8 178.59,321.82 178.59,569.06l0 1271.46 -590.98 0 0 -1271.46c0,-119.36 -43.27,-179.06 -130.33,-179.06 -84.05,0 -126.32,59.7 -126.32,179.06l0 1271.46 -590.98 0z"/>
   <path class="fil4" d="M4264.36 1629.02l0 -451.45c23.5,4.7 51.7,6.3 84.65,6.3 180.25,0 456.14,-73.69 456.14,-404.44 0,-111.25 -43.9,-208.45 -116,-269.6 -76.83,-65.85 -191.24,-95.61 -343.29,-95.61 -133.25,0 -236.69,10.96 -311.9,25.06l0 1189.73 230.4 0zm0 -1025.14c20.4,-4.7 53.3,-9.4 100.3,-9.4 128.55,0 210.05,67.4 210.05,195.94 0,130.1 -84.65,211.6 -228.85,211.6 -34.5,0 -59.55,-1.55 -81.5,-6.25l0 -391.89zm899.74 304.09l-9.4 -152.05 -199.09 0c3.15,78.39 6.25,164.59 6.25,272.74l0 600.35 231.99 0 0 -451.45c0,-148.9 79.95,-219.45 184.99,-219.45 23.5,0 42.3,1.55 59.55,4.7l0 -221c-15.7,-3.15 -29.8,-4.7 -51.75,-4.7 -81.5,0 -175.55,58 -216.3,170.85l-6.25 0zm642.65 -390.29c0,-72.1 -50.16,-123.84 -125.4,-123.84 -72.11,0 -123.84,51.75 -123.84,123.84 0,70.55 50.15,123.8 123.84,123.8 72.1,0 125.4,-48.56 125.4,-123.8zm-239.84 238.25l0 873.09 231.99 0 0 -873.09 -231.99 0zm645.79 117.81l-10.95 -117.81 -200.64 0c3.15,77.06 6.25,160.16 6.25,262.27l0 610.82 232.04 0 0 -519.63c0,-132.43 86.2,-181.07 148.87,-181.07 98.75,0 133.25,84.69 133.25,191.24l0 509.45 231.99 0 0 -534.5c0,-244.54 -123.84,-355.84 -283.71,-355.84 -126.99,-1.55 -213.19,70.81 -252.39,135.06l-4.7 0zm670.9 -117.81l0 170.85 114.4 0 0 402.84c0,97.2 4.7,315.06 255.5,315.06 67.4,0 123.89,-7.81 155.19,-20.35l-3.11 -177.14c-23.54,4.7 -42.34,7.85 -75.25,7.85 -70.55,0 -103.45,-43.9 -103.45,-148.91l0 -379.34 192.8 0 0 -170.85 -192.8 0 0 -227.29 -228.89 67.4 0 159.89 -114.4 0zm1376.24 506.29c4.7,-25.09 6.25,-58 6.25,-92.5 0,-282.14 -137.9,-432.6 -349.54,-432.6 -255.46,0 -399.69,216.3 -399.69,467.09 0,271.16 153.63,440.45 423.24,440.45 108.15,0 210,-18.8 282.1,-50.15l-32.9 -159.89c-59.55,20.4 -126.95,36.05 -213.15,36.05 -125.4,0 -231.99,-59.55 -238.26,-208.46l521.95 0zm-521.95 -161.45c6.26,-86.2 53.3,-202.2 164.59,-202.2 114.41,0 150.46,111.3 148.87,202.2l-313.46 0zm891.89 -192.8l-9.4 -152.05 -199.09 0c3.15,78.39 6.26,164.59 6.26,272.74l0 600.35 231.99 0 0 -451.45c0,-148.9 79.95,-219.45 184.98,-219.45 23.51,0 42.31,1.55 59.56,4.7l0 -221c-15.66,-3.15 -29.8,-4.7 -51.71,-4.7 -81.53,0 -175.58,58 -216.34,170.85l-6.25 0z"/>
   <polygon class="fil5" points="3862.73,1831.27 8904.15,1831.27 8904.15,1938.46 3862.73,1938.46 "/>
   <path class="fil5" d="M3738.12 151.83l5166.04 0 0 107.18 -5071.24 0c-14.73,-21.58 -30.72,-41.94 -47.97,-61.03 -14.77,-16.4 -30.38,-31.8 -46.82,-46.15z"/>
   <path class="fil4" d="M2225.18 1210.43l0 248.47 -554.42 0 276.15 -516.44 9.44 -17.58c7.47,-13.73 11.36,-27.25 11.36,-40.75 0,-33.91 -19.96,-50.85 -60.08,-50.85 -15.65,0 -29.39,5.8 -40.97,17.16 -11.58,11.33 -17.4,24.88 -17.4,40.31 0,17.4 7.51,33.28 22.76,47.41l-110.07 196.13c-46.15,-28.35 -81.32,-64.59 -106.01,-108.6 -24.69,-43.97 -37.09,-92.67 -37.09,-145.64 0,-82.61 29.17,-153.2 87.31,-212.24 58.38,-58.77 128.73,-88.16 211.35,-88.16 83.02,0 153.6,29.17 211.52,87.31 58.15,58.15 87.09,128.95 87.09,212.42 0,47.63 -10.69,92.05 -32.16,133.25l-102.13 197.8 143.32 0z"/>
   <path class="fil4" d="M-0 2537.29l0 -279.34 88.54 0 52.29 190.51 51.75 -190.51 88.72 0 0 279.34 -54.63 0 -0.18 -219.9 -57.56 219.9 -56.81 0 -57.26 -219.9 -0.22 219.9 -54.63 0zm381.56 -140.07l-50.52 -8.58c5.7,-19.77 15.54,-34.38 29.46,-43.86 13.95,-9.52 34.64,-14.26 62.14,-14.26 24.91,0 43.52,2.78 55.74,8.45 12.17,5.66 20.79,12.8 25.76,21.54 4.96,8.7 7.48,24.61 7.48,47.89l-0.82 62.4c0,17.76 0.89,30.9 2.62,39.38 1.78,8.45 5.11,17.47 10,27.1l-55.45 0c-1.41,-3.53 -3.25,-8.71 -5.36,-15.62 -0.89,-3.15 -1.55,-5.26 -1.96,-6.22 -9.52,8.96 -19.74,15.65 -30.57,20.18 -10.88,4.48 -22.43,6.74 -34.72,6.74 -21.65,0 -38.79,-5.67 -51.3,-16.99 -12.51,-11.22 -18.76,-25.55 -18.76,-42.83 0,-11.4 2.89,-21.58 8.58,-30.57 5.7,-8.89 13.62,-15.8 23.95,-20.54 10.28,-4.73 25.09,-8.92 44.44,-12.47 26.1,-4.7 44.23,-9.11 54.31,-13.14l0 -5.4c0,-10.41 -2.63,-17.8 -7.96,-22.28 -5.36,-4.41 -15.43,-6.66 -30.16,-6.66 -9.99,0 -17.73,1.89 -23.31,5.74 -5.63,3.78 -10.1,10.47 -13.59,20.02zm75.03 43.31c-7.14,2.3 -18.48,4.99 -34.06,8.18 -15.46,3.18 -25.68,6.33 -30.43,9.33 -7.29,4.99 -10.95,11.21 -10.95,18.83 0,7.55 2.93,14 8.81,19.43 5.81,5.48 13.21,8.22 22.24,8.22 10.06,0 19.69,-3.18 28.87,-9.51 6.74,-4.85 11.22,-10.73 13.32,-17.73 1.44,-4.55 2.18,-13.28 2.18,-26.09l0 -10.66zm302.54 96.76l-55.86 0 0 -103.2c0,-21.83 -1.22,-35.93 -3.59,-42.34 -2.44,-6.4 -6.33,-11.36 -11.77,-14.91 -5.43,-3.6 -11.95,-5.37 -19.58,-5.37 -9.77,0 -18.54,2.55 -26.28,7.63 -7.81,5.07 -13.09,11.85 -15.95,20.17 -2.96,8.37 -4.36,23.84 -4.36,46.49l0 91.54 -55.86 0 0 -202.46 51.79 0 0 29.71c18.54,-22.68 41.86,-34.01 70.06,-34.01 12.36,0 23.72,2.15 33.94,6.37 10.36,4.29 18.1,9.69 23.31,16.28 5.3,6.59 8.96,14.07 11.03,22.47 2.12,8.36 3.12,20.35 3.12,35.93l0 125.7zm196.43 0l0 -30.28c-7.74,10.76 -17.88,19.36 -30.47,25.8 -12.55,6.36 -25.8,9.55 -39.74,9.55 -14.26,0 -27.03,-3 -38.32,-8.99 -11.32,-5.96 -19.5,-14.41 -24.5,-25.21 -5.11,-10.84 -7.63,-25.8 -7.63,-44.94l0 -128.39 55.86 0 0 93.23c0,28.54 1,45.97 3.11,52.41 2.04,6.41 5.77,11.55 11.29,15.29 5.43,3.75 12.36,5.63 20.76,5.63 9.59,0 18.14,-2.52 25.8,-7.52 7.59,-5.03 12.77,-11.25 15.54,-18.73 2.78,-7.47 4.19,-25.68 4.19,-54.78l0 -85.53 55.86 0 0 202.46 -51.75 0zm205.79 -202.46l0 42.52 -38.31 0 0 81.98c0,16.66 0.29,26.31 1.07,29.05 0.74,2.74 2.37,5 4.99,6.85 2.59,1.74 5.74,2.62 9.48,2.62 5.21,0 12.7,-1.66 22.54,-5.1l4.7 41.6c-12.96,5.33 -27.65,7.99 -44.12,7.99 -10.03,0 -19.06,-1.63 -27.16,-4.89 -8.08,-3.25 -14,-7.47 -17.73,-12.58 -3.82,-5.22 -6.37,-12.18 -7.89,-21.03 -1.14,-6.25 -1.74,-18.87 -1.74,-37.91l0 -88.6 -25.72 0 0 -42.52 25.72 0 0 -40.2 55.86 -31.57 0 71.77 38.31 0zm161.42 138.5l55.85 8.95c-7.14,19.55 -18.47,34.47 -33.9,44.72 -15.48,10.21 -34.86,15.36 -58,15.36 -36.79,0 -64.03,-11.51 -81.62,-34.54 -13.91,-18.47 -20.95,-41.75 -20.95,-69.88 0,-33.57 9.18,-59.89 27.47,-78.88 18.29,-19.02 41.41,-28.54 69.43,-28.54 31.39,0 56.18,9.93 74.4,29.84 18.13,19.91 26.83,50.41 26.02,91.49l-139.83 0c0.41,15.84 4.92,28.21 13.54,37.06 8.55,8.84 19.28,13.25 32.05,13.25 8.77,0 16.1,-2.27 22.02,-6.81 6,-4.55 10.48,-11.92 13.51,-22.02zm3.25 -54.26c-0.41,-15.55 -4.51,-27.35 -12.51,-35.42 -7.92,-8.11 -17.58,-12.18 -28.98,-12.18 -12.15,0 -22.25,4.33 -30.17,12.84 -7.95,8.48 -11.83,20.13 -11.69,34.76l83.35 0zm293.59 118.22l-55.86 0 0 -103.2c0,-21.83 -1.22,-35.93 -3.59,-42.34 -2.44,-6.4 -6.33,-11.36 -11.73,-14.91 -5.48,-3.6 -11.99,-5.37 -19.59,-5.37 -9.8,0 -18.57,2.55 -26.31,7.63 -7.81,5.07 -13.1,11.85 -15.95,20.17 -2.93,8.37 -4.38,23.84 -4.38,46.49l0 91.54 -55.81 0 0 -202.46 51.73 0 0 29.71c18.55,-22.68 41.86,-34.01 70.06,-34.01 12.37,0 23.73,2.15 33.98,6.37 10.32,4.29 18.07,9.69 23.28,16.28 5.29,6.59 8.96,14.07 11.03,22.47 2.11,8.36 3.12,20.35 3.12,35.93l0 125.7zm240.87 -142.39l-55.07 9.37c-1.82,-10.48 -6.03,-18.36 -12.62,-23.69 -6.59,-5.26 -15.1,-7.92 -25.54,-7.92 -13.92,0 -25.1,4.63 -33.35,13.84 -8.29,9.25 -12.43,24.66 -12.43,46.31 0,24.06 4.19,41.04 12.62,50.96 8.4,9.96 19.69,14.92 33.87,14.92 10.54,0 19.24,-2.93 25.98,-8.74 6.82,-5.77 11.55,-15.73 14.36,-29.9l55 8.99c-5.7,24.17 -16.62,42.46 -32.79,54.82 -16.18,12.33 -37.86,18.51 -65.11,18.51 -30.82,0 -55.48,-9.37 -73.83,-28.02 -18.43,-18.73 -27.61,-44.6 -27.61,-77.69 0,-33.49 9.25,-59.51 27.69,-78.16 18.39,-18.65 43.34,-27.95 74.8,-27.95 25.69,0 46.12,5.33 61.37,15.92 15.14,10.59 25.99,26.72 32.68,48.45zm-155.52 216.9l0 -22.36c13.69,1.37 26.27,2.08 37.75,2.08 11.85,0 20.65,-2 26.36,-6.11 4.41,-3.07 6.62,-6.97 6.62,-11.85 0,-4.26 -2.04,-8.07 -6.21,-11.26 -4.15,-3.18 -10.51,-4.73 -19.14,-4.73 -8.55,0 -17.25,1.29 -26.25,3.85l5.22 -18.92c10.32,-3.51 21.51,-5.21 33.42,-5.21 16.7,0 29.24,3.51 37.86,10.47 8.62,7.03 13,15.55 13,25.54 0,11.25 -4.77,20.28 -14.33,27.32 -12.92,9.55 -31.38,14.28 -55.48,14.28 -17.1,0 -30.09,-1.04 -38.82,-3.11zm239.54 -214.57l-50.56 -8.58c5.71,-19.77 15.55,-34.38 29.5,-43.86 13.92,-9.52 34.64,-14.26 62.11,-14.26 24.91,0 43.52,2.78 55.77,8.45 12.14,5.66 20.76,12.8 25.73,21.54 4.96,8.7 7.51,24.61 7.51,47.89l-0.82 62.4c0,17.76 0.86,30.9 2.63,39.38 1.77,8.45 5.07,17.47 9.99,27.1l-55.44 0c-1.41,-3.53 -3.26,-8.71 -5.37,-15.62 -0.88,-3.15 -1.55,-5.26 -1.96,-6.22 -9.55,8.96 -19.72,15.65 -30.57,20.18 -10.88,4.48 -22.43,6.74 -34.75,6.74 -21.65,0 -38.79,-5.67 -51.26,-16.99 -12.52,-11.22 -18.77,-25.55 -18.77,-42.83 0,-11.4 2.85,-21.58 8.55,-30.57 5.7,-8.89 13.66,-15.8 23.98,-20.54 10.25,-4.73 25.05,-8.92 44.45,-12.47 26.09,-4.7 44.23,-9.11 54.26,-13.14l0 -5.4c0,-10.41 -2.63,-17.8 -7.92,-22.28 -5.37,-4.41 -15.43,-6.66 -30.16,-6.66 -10,0 -17.77,1.89 -23.32,5.74 -5.62,3.78 -10.1,10.47 -13.59,20.02zm75 43.31c-7.11,2.3 -18.48,4.99 -34.01,8.18 -15.51,3.18 -25.69,6.33 -30.43,9.33 -7.29,4.99 -10.95,11.21 -10.95,18.83 0,7.55 2.92,14 8.77,19.43 5.81,5.48 13.25,8.22 22.27,8.22 10.03,0 19.69,-3.18 28.87,-9.51 6.7,-4.85 11.22,-10.73 13.32,-17.73 1.41,-4.55 2.15,-13.28 2.15,-26.09l0 -10.66zm-72.96 -131.47l-25.68 0c-0.15,-2.92 -0.22,-5.21 -0.22,-6.81 0,-13.36 3.44,-23.62 10.22,-30.75 6.74,-7.22 15.46,-10.82 26.09,-10.82 4.7,0 8.95,0.48 12.99,1.45 4,0.97 11.25,3.7 21.8,8.18 10.59,4.51 18.8,6.77 24.88,6.77 4.22,0 7.73,-1.29 10.58,-3.85 2.93,-2.59 4.7,-6.88 5.49,-12.95l25.68 0c-0.12,17.35 -3.44,29.71 -10,37.19 -6.59,7.48 -14.98,11.17 -25.32,11.17 -4.55,0 -8.99,-0.44 -13.32,-1.33 -3.03,-0.78 -10.66,-3.51 -22.83,-8.14 -12.21,-4.58 -21.07,-6.88 -26.62,-6.88 -4.29,0 -7.54,1.23 -9.91,3.78 -2.44,2.48 -3.66,6.81 -3.82,12.99zm170.04 124.52c0,-17.8 4.58,-35.05 13.73,-51.67 9.18,-16.73 22.17,-29.39 38.93,-38.16 16.77,-8.81 35.46,-13.22 56.18,-13.22 32.02,0 58.19,9.93 78.61,29.84 20.47,19.94 30.65,45.04 30.65,75.47 0,30.72 -10.32,56.15 -30.9,76.29 -20.66,20.17 -46.64,30.24 -77.95,30.24 -19.36,0 -37.82,-4.22 -55.45,-12.62 -17.54,-8.4 -30.9,-20.66 -40.08,-36.9 -9.15,-16.22 -13.73,-35.98 -13.73,-59.26zm57.52 2.84c0,20.1 4.96,35.49 14.85,46.2 10.03,10.73 22.24,16.06 36.87,16.06 14.5,0 26.72,-5.33 36.6,-16.06 9.85,-10.7 14.81,-26.21 14.81,-46.56 0,-19.84 -4.96,-35.13 -14.81,-45.79 -9.87,-10.73 -22.1,-16.06 -36.6,-16.06 -14.63,0 -26.84,5.33 -36.87,16.06 -9.88,10.66 -14.85,26.09 -14.85,46.15zm202.9 47.41l55.86 0 0 38.32c0,15.46 -1.37,27.75 -4.14,36.68 -2.78,8.95 -8.07,17.02 -15.81,24.09 -7.76,7.14 -17.62,12.7 -29.49,16.77l-10.85 -22.2c11.18,-3.6 19.14,-8.48 23.91,-14.73 4.67,-6.15 7.18,-14.66 7.48,-25.46l-26.95 0 0 -53.46zm303.25 53.46l-104.46 -279.34 63.88 0 74.1 206.79 71.13 -206.79 62.81 0 -103.83 279.34 -63.65 0zm296.65 -63.96l55.82 8.95c-7.14,19.55 -18.48,34.47 -33.91,44.72 -15.46,10.21 -34.86,15.36 -58,15.36 -36.78,0 -64.03,-11.51 -81.62,-34.54 -13.91,-18.47 -20.94,-41.75 -20.94,-69.88 0,-33.57 9.18,-59.89 27.46,-78.88 18.29,-19.02 41.45,-28.54 69.43,-28.54 31.39,0 56.19,9.93 74.44,29.84 18.13,19.91 26.8,50.41 26.02,91.49l-139.83 0c0.37,15.84 4.88,28.21 13.5,37.06 8.55,8.84 19.28,13.25 32.06,13.25 8.77,0 16.09,-2.27 22.02,-6.81 5.96,-4.55 10.47,-11.92 13.54,-22.02zm3.22 -54.26c-0.41,-15.55 -4.55,-27.35 -12.47,-35.42 -7.96,-8.11 -17.62,-12.18 -29.02,-12.18 -12.18,0 -22.21,4.33 -30.16,12.84 -7.96,8.48 -11.85,20.13 -11.7,34.76l83.36 0zm293.58 118.22l-55.85 0 0 -103.2c0,-21.83 -1.19,-35.93 -3.6,-42.34 -2.43,-6.4 -6.33,-11.36 -11.76,-14.91 -5.41,-3.6 -11.96,-5.37 -19.55,-5.37 -9.81,0 -18.55,2.55 -26.31,7.63 -7.82,5.07 -13.1,11.85 -15.96,20.17 -2.93,8.37 -4.36,23.84 -4.36,46.49l0 91.54 -55.86 0 0 -202.46 51.79 0 0 29.71c18.54,-22.68 41.86,-34.01 70.06,-34.01 12.36,0 23.72,2.15 33.97,6.37 10.33,4.29 18.07,9.69 23.28,16.28 5.3,6.59 8.96,14.07 11.04,22.47 2.07,8.36 3.11,20.35 3.11,35.93l0 125.7zm250.65 0l-51.78 0 0 -29.72c-8.62,11.58 -18.87,20.21 -30.65,26.09 -11.77,5.77 -23.66,8.7 -35.61,8.7 -24.39,0 -45.23,-9.37 -62.63,-28.17 -17.32,-18.76 -26.02,-44.94 -26.02,-78.54 0,-34.31 8.4,-60.47 25.32,-78.35 16.95,-17.88 38.27,-26.76 64.07,-26.76 23.65,0 44.15,9.4 61.44,28.21l0 -100.79 55.85 0 0 279.34zm-149.23 -105.16c0,21.65 3.15,37.35 9.33,47.05 9.03,14.03 21.61,21.06 37.79,21.06 12.84,0 23.76,-5.26 32.76,-15.8 9.03,-10.55 13.51,-26.21 13.51,-47.12 0,-23.35 -4.38,-40.16 -13.15,-50.41 -8.77,-10.29 -19.87,-15.43 -33.53,-15.43 -13.25,0 -24.35,5.11 -33.31,15.21 -8.89,10.18 -13.4,25.32 -13.4,45.45zm245.77 -34.91l-50.56 -8.58c5.7,-19.77 15.58,-34.38 29.49,-43.86 13.92,-9.52 34.64,-14.26 62.11,-14.26 24.91,0 43.52,2.78 55.77,8.45 12.18,5.66 20.81,12.8 25.73,21.54 4.96,8.7 7.51,24.61 7.51,47.89l-0.81 62.4c0,17.76 0.85,30.9 2.62,39.38 1.77,8.45 5.07,17.47 9.99,27.1l-55.44 0c-1.45,-3.53 -3.26,-8.71 -5.37,-15.62 -0.88,-3.15 -1.55,-5.26 -1.96,-6.22 -9.51,8.96 -19.72,15.65 -30.57,20.18 -10.88,4.48 -22.42,6.74 -34.75,6.74 -21.65,0 -38.79,-5.67 -51.26,-16.99 -12.52,-11.22 -18.77,-25.55 -18.77,-42.83 0,-11.4 2.85,-21.58 8.59,-30.57 5.66,-8.89 13.62,-15.8 23.94,-20.54 10.25,-4.73 25.1,-8.92 44.45,-12.47 26.09,-4.7 44.23,-9.11 54.26,-13.14l0 -5.4c0,-10.41 -2.63,-17.8 -7.92,-22.28 -5.37,-4.41 -15.43,-6.66 -30.16,-6.66 -10,0 -17.73,1.89 -23.32,5.74 -5.62,3.78 -10.1,10.47 -13.58,20.02zm74.98 43.31c-7.11,2.3 -18.48,4.99 -34.06,8.18 -15.46,3.18 -25.65,6.33 -30.38,9.33 -7.29,4.99 -10.95,11.21 -10.95,18.83 0,7.55 2.92,14 8.77,19.43 5.84,5.48 13.25,8.22 22.28,8.22 10.03,0 19.68,-3.18 28.86,-9.51 6.7,-4.85 11.22,-10.73 13.32,-17.73 1.41,-4.55 2.15,-13.28 2.15,-26.09l0 -10.66zm345.69 32.8l55.86 8.95c-7.14,19.55 -18.48,34.47 -33.91,44.72 -15.46,10.21 -34.82,15.36 -58,15.36 -36.78,0 -64.03,-11.51 -81.62,-34.54 -13.95,-18.47 -20.94,-41.75 -20.94,-69.88 0,-33.57 9.18,-59.89 27.46,-78.88 18.29,-19.02 41.45,-28.54 69.43,-28.54 31.39,0 56.19,9.93 74.4,29.84 18.14,19.91 26.84,50.41 26.02,91.49l-139.83 0c0.41,15.84 4.93,28.21 13.56,37.06 8.54,8.84 19.27,13.25 32.05,13.25 8.77,0 16.09,-2.27 22.02,-6.81 5.99,-4.55 10.43,-11.92 13.5,-22.02zm3.26 -54.26c-0.41,-15.55 -4.55,-27.35 -12.52,-35.42 -7.92,-8.11 -17.57,-12.18 -28.98,-12.18 -12.18,0 -22.24,4.33 -30.16,12.84 -7.96,8.48 -11.85,20.13 -11.7,34.76l83.36 0zm216.49 118.22l0 -277 59.07 0 0 229.77 146.35 0 0 47.23 -205.42 0zm233.88 -103.71c0,-17.8 4.55,-35.05 13.72,-51.67 9.18,-16.73 22.18,-29.39 38.95,-38.16 16.8,-8.81 35.45,-13.22 56.18,-13.22 32.01,0 58.15,9.93 78.61,29.84 20.43,19.94 30.65,45.04 30.65,75.47 0,30.72 -10.32,56.15 -30.91,76.29 -20.65,20.17 -46.64,30.24 -77.94,30.24 -19.36,0 -37.83,-4.22 -55.45,-12.62 -17.54,-8.4 -30.91,-20.66 -40.09,-36.9 -9.17,-16.22 -13.72,-35.98 -13.72,-59.26zm57.47 2.84c0,20.1 5,35.49 14.92,46.2 9.96,10.73 22.21,16.06 36.79,16.06 14.54,0 26.75,-5.33 36.64,-16.06 9.85,-10.7 14.8,-26.21 14.8,-46.56 0,-19.84 -4.95,-35.13 -14.8,-45.79 -9.88,-10.73 -22.1,-16.06 -36.64,-16.06 -14.58,0 -26.84,5.33 -36.79,16.06 -9.91,10.66 -14.92,26.09 -14.92,46.15zm388.86 -41.53l-55.04 9.37c-1.85,-10.48 -6.06,-18.36 -12.65,-23.69 -6.59,-5.26 -15.1,-7.92 -25.54,-7.92 -13.92,0 -25.06,4.63 -33.35,13.84 -8.29,9.25 -12.43,24.66 -12.43,46.31 0,24.06 4.22,41.04 12.65,50.96 8.4,9.96 19.66,14.92 33.79,14.92 10.63,0 19.33,-2.93 26.02,-8.74 6.81,-5.77 11.58,-15.73 14.36,-29.9l55.04 8.99c-5.7,24.17 -16.66,42.46 -32.83,54.82 -16.18,12.33 -37.83,18.51 -65.07,18.51 -30.87,0 -55.52,-9.37 -73.88,-28.02 -18.39,-18.73 -27.57,-44.6 -27.57,-77.69 0,-33.49 9.25,-59.51 27.65,-78.16 18.4,-18.65 43.34,-27.95 74.81,-27.95 25.68,0 46.12,5.33 61.37,15.92 15.14,10.59 25.99,26.72 32.68,48.45zm84.02 2.33l-50.56 -8.58c5.74,-19.77 15.58,-34.38 29.5,-43.86 13.91,-9.52 34.68,-14.26 62.11,-14.26 24.94,0 43.52,2.78 55.77,8.45 12.18,5.66 20.79,12.8 25.76,21.54 4.96,8.7 7.48,24.61 7.48,47.89l-0.82 62.4c0,17.76 0.89,30.9 2.63,39.38 1.77,8.45 5.11,17.47 9.99,27.1l-55.44 0c-1.41,-3.53 -3.26,-8.71 -5.37,-15.62 -0.85,-3.15 -1.55,-5.26 -1.96,-6.22 -9.52,8.96 -19.72,15.65 -30.57,20.18 -10.88,4.48 -22.43,6.74 -34.72,6.74 -21.69,0 -38.79,-5.67 -51.29,-16.99 -12.52,-11.22 -18.77,-25.55 -18.77,-42.83 0,-11.4 2.85,-21.58 8.58,-30.57 5.67,-8.89 13.66,-15.8 23.98,-20.54 10.26,-4.73 25.06,-8.92 44.42,-12.47 26.09,-4.7 44.22,-9.11 54.29,-13.14l0 -5.4c0,-10.41 -2.62,-17.8 -7.95,-22.28 -5.37,-4.41 -15.44,-6.66 -30.17,-6.66 -9.99,0 -17.72,1.89 -23.28,5.74 -5.66,3.78 -10.14,10.47 -13.62,20.02zm75.03 43.31c-7.14,2.3 -18.47,4.99 -34.06,8.18 -15.46,3.18 -25.68,6.33 -30.42,9.33 -7.26,4.99 -10.96,11.21 -10.96,18.83 0,7.55 2.93,14 8.77,19.43 5.85,5.48 13.25,8.22 22.28,8.22 10.07,0 19.69,-3.18 28.9,-9.51 6.7,-4.85 11.18,-10.73 13.29,-17.73 1.44,-4.55 2.18,-13.28 2.18,-26.09l0 -10.66zm294.4 -45.64l-55.04 9.37c-1.85,-10.48 -6.06,-18.36 -12.65,-23.69 -6.59,-5.26 -15.07,-7.92 -25.55,-7.92 -13.91,0 -25.05,4.63 -33.34,13.84 -8.29,9.25 -12.43,24.66 -12.43,46.31 0,24.06 4.22,41.04 12.65,50.96 8.4,9.96 19.65,14.92 33.84,14.92 10.58,0 19.27,-2.93 25.98,-8.74 6.81,-5.77 11.58,-15.73 14.36,-29.9l55.04 8.99c-5.71,24.17 -16.66,42.46 -32.84,54.82 -16.17,12.33 -37.82,18.51 -65.06,18.51 -30.88,0 -55.52,-9.37 -73.88,-28.02 -18.39,-18.73 -27.61,-44.6 -27.61,-77.69 0,-33.49 9.25,-59.51 27.69,-78.16 18.4,-18.65 43.34,-27.95 74.81,-27.95 25.68,0 46.11,5.33 61.37,15.92 15.14,10.59 25.98,26.72 32.68,48.45zm-155.53 216.9l0 -22.36c13.7,1.37 26.28,2.08 37.76,2.08 11.83,0 20.65,-2 26.39,-6.11 4.41,-3.07 6.59,-6.97 6.59,-11.85 0,-4.26 -2.04,-8.07 -6.22,-11.26 -4.14,-3.18 -10.51,-4.73 -19.14,-4.73 -8.55,0 -17.25,1.29 -26.24,3.85l5.26 -18.92c10.32,-3.51 21.47,-5.21 33.43,-5.21 16.65,0 29.2,3.51 37.86,10.47 8.62,7.03 12.95,15.55 12.95,25.54 0,11.25 -4.73,20.28 -14.32,27.32 -12.92,9.55 -31.39,14.28 -55.45,14.28 -17.09,0 -30.12,-1.04 -38.86,-3.11zm239.55 -214.57l-50.56 -8.58c5.74,-19.77 15.58,-34.38 29.5,-43.86 13.91,-9.52 34.64,-14.26 62.1,-14.26 24.95,0 43.57,2.78 55.78,8.45 12.17,5.66 20.79,12.8 25.76,21.54 4.96,8.7 7.48,24.61 7.48,47.89l-0.82 62.4c0,17.76 0.85,30.9 2.62,39.38 1.78,8.45 5.11,17.47 10,27.1l-55.45 0c-1.41,-3.53 -3.25,-8.71 -5.36,-15.62 -0.89,-3.15 -1.55,-5.26 -1.96,-6.22 -9.52,8.96 -19.72,15.65 -30.57,20.18 -10.88,4.48 -22.43,6.74 -34.72,6.74 -21.69,0 -38.79,-5.67 -51.3,-16.99 -12.51,-11.22 -18.76,-25.55 -18.76,-42.83 0,-11.4 2.84,-21.58 8.58,-30.57 5.71,-8.89 13.62,-15.8 23.98,-20.54 10.25,-4.73 25.06,-8.92 44.42,-12.47 26.09,-4.7 44.22,-9.11 54.29,-13.14l0 -5.4c0,-10.41 -2.63,-17.8 -7.96,-22.28 -5.36,-4.41 -15.43,-6.66 -30.16,-6.66 -9.99,0 -17.73,1.89 -23.31,5.74 -5.63,3.78 -10.1,10.47 -13.59,20.02zm75.03 43.31c-7.14,2.3 -18.51,4.99 -34.06,8.18 -15.46,3.18 -25.68,6.33 -30.43,9.33 -7.29,4.99 -10.95,11.21 -10.95,18.83 0,7.55 2.93,14 8.77,19.43 5.85,5.48 13.25,8.22 22.28,8.22 10.07,0 19.69,-3.18 28.87,-9.51 6.74,-4.85 11.22,-10.73 13.32,-17.73 1.44,-4.55 2.18,-13.28 2.18,-26.09l0 -10.66zm-72.95 -131.47l-25.73 0c-0.12,-2.92 -0.19,-5.21 -0.19,-6.81 0,-13.36 3.41,-23.62 10.22,-30.75 6.69,-7.22 15.46,-10.82 26.05,-10.82 4.7,0 8.96,0.48 13,1.45 4,0.97 11.29,3.7 21.79,8.18 10.63,4.51 18.84,6.77 24.88,6.77 4.22,0 7.73,-1.29 10.59,-3.85 2.93,-2.59 4.7,-6.88 5.52,-12.95l25.68 0c-0.15,17.35 -3.48,29.71 -10,37.19 -6.58,7.48 -15.02,11.17 -25.35,11.17 -4.55,0 -8.96,-0.44 -13.29,-1.33 -3.06,-0.78 -10.66,-3.51 -22.83,-8.14 -12.25,-4.58 -21.06,-6.88 -26.65,-6.88 -4.29,0 -7.55,1.23 -9.93,3.78 -2.43,2.48 -3.66,6.81 -3.77,12.99zm170.03 124.52c0,-17.8 4.55,-35.05 13.73,-51.67 9.18,-16.73 22.14,-29.39 38.9,-38.16 16.8,-8.81 35.49,-13.22 56.21,-13.22 31.98,0 58.16,9.93 78.61,29.84 20.44,19.94 30.61,45.04 30.61,75.47 0,30.72 -10.32,56.15 -30.91,76.29 -20.65,20.17 -46.59,30.24 -77.94,30.24 -19.33,0 -37.83,-4.22 -55.41,-12.62 -17.55,-8.4 -30.91,-20.66 -40.09,-36.9 -9.18,-16.22 -13.73,-35.98 -13.73,-59.26zm57.48 2.84c0,20.1 4.96,35.49 14.88,46.2 9.99,10.73 22.21,16.06 36.83,16.06 14.55,0 26.76,-5.33 36.61,-16.06 9.84,-10.7 14.8,-26.21 14.8,-46.56 0,-19.84 -4.96,-35.13 -14.8,-45.79 -9.84,-10.73 -22.05,-16.06 -36.61,-16.06 -14.62,0 -26.84,5.33 -36.83,16.06 -9.91,10.66 -14.88,26.09 -14.88,46.15zm511.84 100.87l-51.78 0 0 -29.72c-8.62,11.58 -18.87,20.21 -30.65,26.09 -11.73,5.77 -23.62,8.7 -35.57,8.7 -24.39,0 -45.27,-9.37 -62.63,-28.17 -17.36,-18.76 -26.02,-44.94 -26.02,-78.54 0,-34.31 8.4,-60.47 25.32,-78.35 16.91,-17.88 38.23,-26.76 64.06,-26.76 23.62,0 44.16,9.4 61.45,28.21l0 -100.79 55.81 0 0 279.34zm-149.19 -105.16c0,21.65 3.11,37.35 9.29,47.05 9.08,14.03 21.65,21.06 37.79,21.06 12.84,0 23.81,-5.26 32.76,-15.8 9.08,-10.55 13.56,-26.21 13.56,-47.12 0,-23.35 -4.38,-40.16 -13.15,-50.41 -8.77,-10.29 -19.87,-15.43 -33.56,-15.43 -13.25,0 -24.32,5.11 -33.28,15.21 -8.92,10.18 -13.4,25.32 -13.4,45.45zm326.45 41.2l55.85 8.95c-7.13,19.55 -18.47,34.47 -33.87,44.72 -15.51,10.21 -34.86,15.36 -58.03,15.36 -36.79,0 -64,-11.51 -81.62,-34.54 -13.91,-18.47 -20.95,-41.75 -20.95,-69.88 0,-33.57 9.22,-59.89 27.47,-78.88 18.29,-19.02 41.45,-28.54 69.43,-28.54 31.39,0 56.23,9.93 74.4,29.84 18.14,19.91 26.84,50.41 26.06,91.49l-139.83 0c0.4,15.84 4.88,28.21 13.5,37.06 8.55,8.84 19.28,13.25 32.05,13.25 8.77,0 16.1,-2.27 22.02,-6.81 6,-4.55 10.48,-11.92 13.51,-22.02zm3.25 -54.26c-0.4,-15.55 -4.54,-27.35 -12.46,-35.42 -7.96,-8.11 -17.58,-12.18 -29.02,-12.18 -12.18,0 -22.21,4.33 -30.16,12.84 -7.96,8.48 -11.85,20.13 -11.7,34.76l83.35 0zm212.79 118.22l0 -279.34 59.14 0 0 279.34 -59.14 0zm110.81 -202.46l51.37 0 0 27.6c18.43,-21.25 40.38,-31.91 65.85,-31.91 13.54,0 25.29,2.66 35.2,7.99 10,5.33 18.14,13.4 24.47,24.17 9.3,-10.78 19.36,-18.84 30.09,-24.17 10.73,-5.33 22.21,-7.99 34.45,-7.99 15.48,0 28.58,3 39.39,9.03 10.73,6.03 18.77,14.88 24.06,26.58 3.89,8.62 5.77,22.58 5.77,41.9l0 129.25 -55.85 0 0 -115.56c0,-20.06 -1.89,-33.02 -5.77,-38.79 -5.15,-7.63 -13.18,-11.48 -23.91,-11.48 -7.82,0 -15.21,2.3 -22.14,6.85 -6.88,4.63 -11.92,11.29 -14.95,20.09 -3.07,8.84 -4.55,22.77 -4.55,41.79l0 97.09 -55.85 0 0 -110.78c0,-19.65 -1.04,-32.39 -3,-38.05 -1.96,-5.73 -5.04,-9.99 -9.25,-12.8 -4.11,-2.81 -9.85,-4.19 -16.95,-4.19 -8.66,0 -16.36,2.26 -23.24,6.66 -6.97,4.48 -11.85,10.85 -14.8,19.25 -3,8.36 -4.52,22.27 -4.52,41.67l0 98.23 -55.85 0 0 -202.46zm364.95 0l52.19 0 0 29.71c6.81,-10.18 15.87,-18.35 27.46,-24.65 11.52,-6.25 24.36,-9.37 38.42,-9.37 24.54,0 45.42,9.25 62.52,27.69 17.13,18.39 25.68,44.16 25.68,77.06 0,33.87 -8.62,60.15 -25.87,78.91 -17.25,18.8 -38.2,28.17 -62.77,28.17 -11.7,0 -22.32,-2.22 -31.83,-6.7 -9.44,-4.41 -19.5,-12.02 -29.94,-22.83l0 101.3 -55.85 0 0 -279.29zm55.03 98.12c0,22.8 4.71,39.64 14.14,50.56 9.37,10.88 20.84,16.31 34.31,16.31 12.96,0 23.76,-4.99 32.39,-15.02 8.62,-9.99 12.92,-26.39 12.92,-49.19 0,-21.36 -4.4,-37.13 -13.32,-47.49 -8.8,-10.33 -19.84,-15.48 -32.93,-15.48 -13.66,0 -25.02,5.07 -33.98,15.24 -9.03,10.1 -13.51,25.14 -13.51,45.05z"/>
   <path class="fil4" d="M7393.5 2537.29l-55.85 0 0 -202.46 51.78 0 0 28.72c8.89,-13.59 16.91,-22.46 24.06,-26.72 7.1,-4.22 15.21,-6.3 24.25,-6.3 12.77,0 25.09,3.37 36.9,10.07l-17.32 46.67c-9.44,-5.84 -18.21,-8.77 -26.31,-8.77 -7.89,0 -14.55,2.08 -19.96,6.18 -5.43,4.19 -9.74,11.59 -12.84,22.4 -3.15,10.76 -4.7,33.38 -4.7,67.81l0 62.4zm227.56 -63.96l55.85 8.95c-7.14,19.55 -18.47,34.47 -33.9,44.72 -15.48,10.21 -34.86,15.36 -58.04,15.36 -36.75,0 -63.99,-11.51 -81.57,-34.54 -13.92,-18.47 -20.95,-41.75 -20.95,-69.88 0,-33.57 9.18,-59.89 27.47,-78.88 18.29,-19.02 41.45,-28.54 69.43,-28.54 31.38,0 56.18,9.93 74.4,29.84 18.13,19.91 26.83,50.41 26.02,91.49l-139.83 0c0.41,15.84 4.88,28.21 13.5,37.06 8.59,8.84 19.33,13.25 32.09,13.25 8.77,0 16.1,-2.27 22.02,-6.81 5.96,-4.55 10.44,-11.92 13.51,-22.02zm3.25 -54.26c-0.41,-15.55 -4.55,-27.35 -12.51,-35.42 -7.96,-8.11 -17.58,-12.18 -28.98,-12.18 -12.18,0 -22.25,4.33 -30.21,12.84 -7.92,8.48 -11.81,20.13 -11.7,34.76l83.39 0zm81.17 61.25l56.26 -8.17c2.4,10.32 7.22,18.2 14.54,23.53 7.26,5.37 17.54,8.07 30.65,8.07 14.48,0 25.36,-2.55 32.68,-7.62 4.89,-3.56 7.37,-8.37 7.37,-14.36 0,-4.04 -1.36,-7.41 -4.03,-10.1 -2.78,-2.52 -9.03,-4.92 -18.7,-7.07 -45.16,-9.55 -73.77,-18.29 -85.86,-26.13 -16.77,-10.98 -25.14,-26.2 -25.14,-45.67 0,-17.62 7.26,-32.35 21.73,-44.31 14.48,-11.99 36.9,-17.95 67.25,-17.95 28.98,0 50.53,4.55 64.56,13.59 14.06,9.11 23.8,22.5 29.08,40.24l-52.6 9.36c-2.21,-7.92 -6.58,-14.03 -12.92,-18.25 -6.28,-4.26 -15.32,-6.33 -27.09,-6.33 -14.8,0 -25.43,1.96 -31.86,5.92 -4.3,2.81 -6.37,6.44 -6.37,10.85 0,3.85 1.82,7.1 5.55,9.77 5.11,3.59 22.54,8.59 52.45,15.11 29.9,6.47 50.78,14.43 62.58,23.83 11.74,9.52 17.62,22.84 17.62,39.87 0,18.54 -8.1,34.53 -24.35,47.85 -16.17,13.32 -40.15,20.03 -71.95,20.03 -28.79,0 -51.63,-5.59 -68.47,-16.69 -16.81,-11.14 -27.8,-26.24 -32.98,-45.35zm226.74 0l56.26 -8.17c2.37,10.32 7.22,18.2 14.54,23.53 7.26,5.37 17.55,8.07 30.65,8.07 14.44,0 25.32,-2.55 32.65,-7.62 4.92,-3.56 7.37,-8.37 7.37,-14.36 0,-4.04 -1.37,-7.41 -4.04,-10.1 -2.77,-2.52 -9.02,-4.92 -18.69,-7.07 -45.16,-9.55 -73.77,-18.29 -85.83,-26.13 -16.81,-10.98 -25.17,-26.2 -25.17,-45.67 0,-17.62 7.29,-32.35 21.73,-44.31 14.47,-11.99 36.94,-17.95 67.28,-17.95 28.95,0 50.49,4.55 64.56,13.59 14.06,9.11 23.8,22.5 29.05,40.24l-52.55 9.36c-2.27,-7.92 -6.59,-14.03 -12.93,-18.25 -6.33,-4.26 -15.36,-6.33 -27.12,-6.33 -14.81,0 -25.39,1.96 -31.83,5.92 -4.3,2.81 -6.41,6.44 -6.41,10.85 0,3.85 1.82,7.1 5.56,9.77 5.14,3.59 22.58,8.59 52.48,15.11 29.9,6.47 50.75,14.43 62.58,23.83 11.74,9.52 17.58,22.84 17.58,39.87 0,18.54 -8.1,34.53 -24.32,47.85 -16.21,13.32 -40.15,20.03 -71.95,20.03 -28.79,0 -51.66,-5.59 -68.51,-16.69 -16.77,-11.14 -27.79,-26.24 -32.93,-45.35zm233.66 -46.74c0,-17.8 4.55,-35.05 13.69,-51.67 9.21,-16.73 22.17,-29.39 38.93,-38.16 16.77,-8.81 35.49,-13.22 56.23,-13.22 31.98,0 58.15,9.93 78.57,29.84 20.47,19.94 30.65,45.04 30.65,75.47 0,30.72 -10.32,56.15 -30.9,76.29 -20.66,20.17 -46.64,30.24 -77.95,30.24 -19.32,0 -37.82,-4.22 -55.41,-12.62 -17.54,-8.4 -30.91,-20.66 -40.12,-36.9 -9.14,-16.22 -13.69,-35.98 -13.69,-59.26zm57.47 2.84c0,20.1 4.96,35.49 14.88,46.2 9.96,10.73 22.21,16.06 36.84,16.06 14.5,0 26.75,-5.33 36.61,-16.06 9.84,-10.7 14.8,-26.21 14.8,-46.56 0,-19.84 -4.96,-35.13 -14.8,-45.79 -9.85,-10.73 -22.11,-16.06 -36.61,-16.06 -14.63,0 -26.88,5.33 -36.84,16.06 -9.91,10.66 -14.88,26.09 -14.88,46.15zm257.98 100.87l-55.86 0 0 -202.46 51.75 0 0 28.72c8.92,-13.59 16.91,-22.46 24.06,-26.72 7.14,-4.22 15.21,-6.3 24.25,-6.3 12.81,0 25.1,3.37 36.9,10.07l-17.32 46.67c-9.43,-5.84 -18.2,-8.77 -26.28,-8.77 -7.88,0 -14.54,2.08 -19.99,6.18 -5.43,4.19 -9.69,11.59 -12.84,22.4 -3.15,10.76 -4.66,33.38 -4.66,67.81l0 62.4zm146.83 -140.07l-50.56 -8.58c5.7,-19.77 15.58,-34.38 29.49,-43.86 13.92,-9.52 34.64,-14.26 62.07,-14.26 24.95,0 43.57,2.78 55.78,8.45 12.17,5.66 20.79,12.8 25.76,21.54 4.96,8.7 7.48,24.61 7.48,47.89l-0.82 62.4c0,17.76 0.89,30.9 2.66,39.38 1.77,8.45 5.11,17.47 10,27.1l-55.45 0c-1.45,-3.53 -3.26,-8.71 -5.37,-15.62 -0.92,-3.15 -1.58,-5.26 -1.99,-6.22 -9.52,8.96 -19.69,15.65 -30.57,20.18 -10.85,4.48 -22.43,6.74 -34.72,6.74 -21.65,0 -38.79,-5.67 -51.3,-16.99 -12.51,-11.22 -18.73,-25.55 -18.73,-42.83 0,-11.4 2.85,-21.58 8.55,-30.57 5.71,-8.89 13.66,-15.8 23.98,-20.54 10.25,-4.73 25.06,-8.92 44.42,-12.47 26.12,-4.7 44.26,-9.11 54.29,-13.14l0 -5.4c0,-10.41 -2.63,-17.8 -7.96,-22.28 -5.36,-4.41 -15.39,-6.66 -30.12,-6.66 -10,0 -17.77,1.89 -23.32,5.74 -5.67,3.78 -10.14,10.47 -13.58,20.02zm74.98 43.31c-7.14,2.3 -18.48,4.99 -34.06,8.18 -15.46,3.18 -25.64,6.33 -30.43,9.33 -7.25,4.99 -10.91,11.21 -10.91,18.83 0,7.55 2.89,14 8.73,19.43 5.85,5.48 13.25,8.22 22.33,8.22 10.03,0 19.65,-3.18 28.86,-9.51 6.7,-4.85 11.22,-10.73 13.29,-17.73 1.44,-4.55 2.18,-13.28 2.18,-26.09l0 -10.66zm90.16 39.78l56.27 -8.17c2.36,10.32 7.18,18.2 14.54,23.53 7.26,5.37 17.54,8.07 30.61,8.07 14.5,0 25.35,-2.55 32.68,-7.62 4.92,-3.56 7.37,-8.37 7.37,-14.36 0,-4.04 -1.37,-7.41 -4,-10.1 -2.81,-2.52 -9.08,-4.92 -18.73,-7.07 -45.16,-9.55 -73.77,-18.29 -85.88,-26.13 -16.77,-10.98 -25.13,-26.2 -25.13,-45.67 0,-17.62 7.25,-32.35 21.73,-44.31 14.5,-11.99 36.93,-17.95 67.28,-17.95 28.95,0 50.49,4.55 64.56,13.59 14.03,9.11 23.75,22.5 29.05,40.24l-52.56 9.36c-2.26,-7.92 -6.59,-14.03 -12.92,-18.25 -6.3,-4.26 -15.36,-6.33 -27.13,-6.33 -14.8,0 -25.39,1.96 -31.83,5.92 -4.32,2.81 -6.4,6.44 -6.4,10.85 0,3.85 1.86,7.1 5.55,9.77 5.11,3.59 22.58,8.59 52.49,15.11 29.87,6.47 50.74,14.43 62.55,23.83 11.76,9.52 17.62,22.84 17.62,39.87 0,18.54 -8.11,34.53 -24.35,47.85 -16.18,13.32 -40.13,20.03 -71.95,20.03 -28.8,0 -51.64,-5.59 -68.48,-16.69 -16.77,-11.14 -27.76,-26.24 -32.94,-45.35z"/>
   <path class="fil0" d="M705.24 1426.63c103.74,115.63 257.43,188.84 428.93,188.84 155.87,0 296.96,-60.44 399.3,-158.23l333.23 336.37c-188.84,184.7 -447.34,298.54 -732.52,298.54 -290.92,0 -554.14,-118.51 -743.91,-309.83l314.97 -355.69z"/>
   <path class="fil1" d="M1134.18 0c295.88,0 563.07,122.59 753.51,319.64l-364.87 359.03c-101.34,-91.94 -238.1,-148.31 -388.64,-148.31 -137.87,0 -264.16,47.3 -362.31,125.88l-372.79 -355.18c189.09,-186.17 448.63,-301.06 735.11,-301.06z"/>
   <path class="fil2" d="M771.87 656.25c-59.33,47.52 -108.37,106.44 -143.42,173.29l736.18 0 0 424.31 -763.94 0c23.57,63.96 59.33,122.4 104.56,172.78l-314.97 355.69c-187.55,-189.03 -303.4,-449.08 -303.4,-736.22 0,-291.63 119.52,-555.31 312.2,-745.03l372.79 355.18z"/>
   <path class="fil3" d="M2326.79 2038.53l0 -1291.85c0,-225.86 67.66,-406.92 203.46,-542.72 135.32,-135.81 315.86,-203.94 541.24,-203.94 224.82,0 396.44,66.17 515.32,197.98 118.88,131.8 178.59,321.82 178.59,569.06l0 1271.46 -590.98 0 0 -1271.46c0,-119.36 -43.27,-179.06 -130.33,-179.06 -84.05,0 -126.32,59.7 -126.32,179.06l0 1271.46 -590.98 0z"/>
   <path class="fil4" d="M4264.36 1629.02l0 -451.45c23.5,4.7 51.7,6.3 84.65,6.3 180.25,0 456.14,-73.69 456.14,-404.44 0,-111.25 -43.9,-208.45 -116,-269.6 -76.83,-65.85 -191.24,-95.61 -343.29,-95.61 -133.25,0 -236.69,10.96 -311.9,25.06l0 1189.73 230.4 0zm0 -1025.14c20.4,-4.7 53.3,-9.4 100.3,-9.4 128.55,0 210.05,67.4 210.05,195.94 0,130.1 -84.65,211.6 -228.85,211.6 -34.5,0 -59.55,-1.55 -81.5,-6.25l0 -391.89zm899.74 304.09l-9.4 -152.05 -199.09 0c3.15,78.39 6.25,164.59 6.25,272.74l0 600.35 231.99 0 0 -451.45c0,-148.9 79.95,-219.45 184.99,-219.45 23.5,0 42.3,1.55 59.55,4.7l0 -221c-15.7,-3.15 -29.8,-4.7 -51.75,-4.7 -81.5,0 -175.55,58 -216.3,170.85l-6.25 0zm642.65 -390.29c0,-72.1 -50.16,-123.84 -125.4,-123.84 -72.11,0 -123.84,51.75 -123.84,123.84 0,70.55 50.15,123.8 123.84,123.8 72.1,0 125.4,-48.56 125.4,-123.8zm-239.84 238.25l0 873.09 231.99 0 0 -873.09 -231.99 0zm645.79 117.81l-10.95 -117.81 -200.64 0c3.15,77.06 6.25,160.16 6.25,262.27l0 610.82 232.04 0 0 -519.63c0,-132.43 86.2,-181.07 148.87,-181.07 98.75,0 133.25,84.69 133.25,191.24l0 509.45 231.99 0 0 -534.5c0,-244.54 -123.84,-355.84 -283.71,-355.84 -126.99,-1.55 -213.19,70.81 -252.39,135.06l-4.7 0zm670.9 -117.81l0 170.85 114.4 0 0 402.84c0,97.2 4.7,315.06 255.5,315.06 67.4,0 123.89,-7.81 155.19,-20.35l-3.11 -177.14c-23.54,4.7 -42.34,7.85 -75.25,7.85 -70.55,0 -103.45,-43.9 -103.45,-148.91l0 -379.34 192.8 0 0 -170.85 -192.8 0 0 -227.29 -228.89 67.4 0 159.89 -114.4 0zm1376.24 506.29c4.7,-25.09 6.25,-58 6.25,-92.5 0,-282.14 -137.9,-432.6 -349.54,-432.6 -255.46,0 -399.69,216.3 -399.69,467.09 0,271.16 153.63,440.45 423.24,440.45 108.15,0 210,-18.8 282.1,-50.15l-32.9 -159.89c-59.55,20.4 -126.95,36.05 -213.15,36.05 -125.4,0 -231.99,-59.55 -238.26,-208.46l521.95 0zm-521.95 -161.45c6.26,-86.2 53.3,-202.2 164.59,-202.2 114.41,0 150.46,111.3 148.87,202.2l-313.46 0zm891.89 -192.8l-9.4 -152.05 -199.09 0c3.15,78.39 6.26,164.59 6.26,272.74l0 600.35 231.99 0 0 -451.45c0,-148.9 79.95,-219.45 184.98,-219.45 23.51,0 42.31,1.55 59.56,4.7l0 -221c-15.66,-3.15 -29.8,-4.7 -51.71,-4.7 -81.53,0 -175.58,58 -216.34,170.85l-6.25 0z"/>
   <polygon class="fil5" points="3862.73,1831.27 8904.15,1831.27 8904.15,1938.46 3862.73,1938.46 "/>
   <path class="fil5" d="M3738.12 151.83l5166.04 0 0 107.18 -5071.24 0c-14.73,-21.58 -30.72,-41.94 -47.97,-61.03 -14.77,-16.4 -30.38,-31.8 -46.82,-46.15z"/>
   <path class="fil4" d="M2225.18 1210.43l0 248.47 -554.42 0 276.15 -516.44 9.44 -17.58c7.47,-13.73 11.36,-27.25 11.36,-40.75 0,-33.91 -19.96,-50.85 -60.08,-50.85 -15.65,0 -29.39,5.8 -40.97,17.16 -11.58,11.33 -17.4,24.88 -17.4,40.31 0,17.4 7.51,33.28 22.76,47.41l-110.07 196.13c-46.15,-28.35 -81.32,-64.59 -106.01,-108.6 -24.69,-43.97 -37.09,-92.67 -37.09,-145.64 0,-82.61 29.17,-153.2 87.31,-212.24 58.38,-58.77 128.73,-88.16 211.35,-88.16 83.02,0 153.6,29.17 211.52,87.31 58.15,58.15 87.09,128.95 87.09,212.42 0,47.63 -10.69,92.05 -32.16,133.25l-102.13 197.8 143.32 0z"/>
   <path class="fil4" d="M-0 2537.29l0 -279.34 88.54 0 52.29 190.51 51.75 -190.51 88.72 0 0 279.34 -54.63 0 -0.18 -219.9 -57.56 219.9 -56.81 0 -57.26 -219.9 -0.22 219.9 -54.63 0zm381.56 -140.07l-50.52 -8.58c5.7,-19.77 15.54,-34.38 29.46,-43.86 13.95,-9.52 34.64,-14.26 62.14,-14.26 24.91,0 43.52,2.78 55.74,8.45 12.17,5.66 20.79,12.8 25.76,21.54 4.96,8.7 7.48,24.61 7.48,47.89l-0.82 62.4c0,17.76 0.89,30.9 2.62,39.38 1.78,8.45 5.11,17.47 10,27.1l-55.45 0c-1.41,-3.53 -3.25,-8.71 -5.36,-15.62 -0.89,-3.15 -1.55,-5.26 -1.96,-6.22 -9.52,8.96 -19.74,15.65 -30.57,20.18 -10.88,4.48 -22.43,6.74 -34.72,6.74 -21.65,0 -38.79,-5.67 -51.3,-16.99 -12.51,-11.22 -18.76,-25.55 -18.76,-42.83 0,-11.4 2.89,-21.58 8.58,-30.57 5.7,-8.89 13.62,-15.8 23.95,-20.54 10.28,-4.73 25.09,-8.92 44.44,-12.47 26.1,-4.7 44.23,-9.11 54.31,-13.14l0 -5.4c0,-10.41 -2.63,-17.8 -7.96,-22.28 -5.36,-4.41 -15.43,-6.66 -30.16,-6.66 -9.99,0 -17.73,1.89 -23.31,5.74 -5.63,3.78 -10.1,10.47 -13.59,20.02zm75.03 43.31c-7.14,2.3 -18.48,4.99 -34.06,8.18 -15.46,3.18 -25.68,6.33 -30.43,9.33 -7.29,4.99 -10.95,11.21 -10.95,18.83 0,7.55 2.93,14 8.81,19.43 5.81,5.48 13.21,8.22 22.24,8.22 10.06,0 19.69,-3.18 28.87,-9.51 6.74,-4.85 11.22,-10.73 13.32,-17.73 1.44,-4.55 2.18,-13.28 2.18,-26.09l0 -10.66zm302.54 96.76l-55.86 0 0 -103.2c0,-21.83 -1.22,-35.93 -3.59,-42.34 -2.44,-6.4 -6.33,-11.36 -11.77,-14.91 -5.43,-3.6 -11.95,-5.37 -19.58,-5.37 -9.77,0 -18.54,2.55 -26.28,7.63 -7.81,5.07 -13.09,11.85 -15.95,20.17 -2.96,8.37 -4.36,23.84 -4.36,46.49l0 91.54 -55.86 0 0 -202.46 51.79 0 0 29.71c18.54,-22.68 41.86,-34.01 70.06,-34.01 12.36,0 23.72,2.15 33.94,6.37 10.36,4.29 18.1,9.69 23.31,16.28 5.3,6.59 8.96,14.07 11.03,22.47 2.12,8.36 3.12,20.35 3.12,35.93l0 125.7zm196.43 0l0 -30.28c-7.74,10.76 -17.88,19.36 -30.47,25.8 -12.55,6.36 -25.8,9.55 -39.74,9.55 -14.26,0 -27.03,-3 -38.32,-8.99 -11.32,-5.96 -19.5,-14.41 -24.5,-25.21 -5.11,-10.84 -7.63,-25.8 -7.63,-44.94l0 -128.39 55.86 0 0 93.23c0,28.54 1,45.97 3.11,52.41 2.04,6.41 5.77,11.55 11.29,15.29 5.43,3.75 12.36,5.63 20.76,5.63 9.59,0 18.14,-2.52 25.8,-7.52 7.59,-5.03 12.77,-11.25 15.54,-18.73 2.78,-7.47 4.19,-25.68 4.19,-54.78l0 -85.53 55.86 0 0 202.46 -51.75 0zm205.79 -202.46l0 42.52 -38.31 0 0 81.98c0,16.66 0.29,26.31 1.07,29.05 0.74,2.74 2.37,5 4.99,6.85 2.59,1.74 5.74,2.62 9.48,2.62 5.21,0 12.7,-1.66 22.54,-5.1l4.7 41.6c-12.96,5.33 -27.65,7.99 -44.12,7.99 -10.03,0 -19.06,-1.63 -27.16,-4.89 -8.08,-3.25 -14,-7.47 -17.73,-12.58 -3.82,-5.22 -6.37,-12.18 -7.89,-21.03 -1.14,-6.25 -1.74,-18.87 -1.74,-37.91l0 -88.6 -25.72 0 0 -42.52 25.72 0 0 -40.2 55.86 -31.57 0 71.77 38.31 0zm161.42 138.5l55.85 8.95c-7.14,19.55 -18.47,34.47 -33.9,44.72 -15.48,10.21 -34.86,15.36 -58,15.36 -36.79,0 -64.03,-11.51 -81.62,-34.54 -13.91,-18.47 -20.95,-41.75 -20.95,-69.88 0,-33.57 9.18,-59.89 27.47,-78.88 18.29,-19.02 41.41,-28.54 69.43,-28.54 31.39,0 56.18,9.93 74.4,29.84 18.13,19.91 26.83,50.41 26.02,91.49l-139.83 0c0.41,15.84 4.92,28.21 13.54,37.06 8.55,8.84 19.28,13.25 32.05,13.25 8.77,0 16.1,-2.27 22.02,-6.81 6,-4.55 10.48,-11.92 13.51,-22.02zm3.25 -54.26c-0.41,-15.55 -4.51,-27.35 -12.51,-35.42 -7.92,-8.11 -17.58,-12.18 -28.98,-12.18 -12.15,0 -22.25,4.33 -30.17,12.84 -7.95,8.48 -11.83,20.13 -11.69,34.76l83.35 0zm293.59 118.22l-55.86 0 0 -103.2c0,-21.83 -1.22,-35.93 -3.59,-42.34 -2.44,-6.4 -6.33,-11.36 -11.73,-14.91 -5.48,-3.6 -11.99,-5.37 -19.59,-5.37 -9.8,0 -18.57,2.55 -26.31,7.63 -7.81,5.07 -13.1,11.85 -15.95,20.17 -2.93,8.37 -4.38,23.84 -4.38,46.49l0 91.54 -55.81 0 0 -202.46 51.73 0 0 29.71c18.55,-22.68 41.86,-34.01 70.06,-34.01 12.37,0 23.73,2.15 33.98,6.37 10.32,4.29 18.07,9.69 23.28,16.28 5.29,6.59 8.96,14.07 11.03,22.47 2.11,8.36 3.12,20.35 3.12,35.93l0 125.7zm240.87 -142.39l-55.07 9.37c-1.82,-10.48 -6.03,-18.36 -12.62,-23.69 -6.59,-5.26 -15.1,-7.92 -25.54,-7.92 -13.92,0 -25.1,4.63 -33.35,13.84 -8.29,9.25 -12.43,24.66 -12.43,46.31 0,24.06 4.19,41.04 12.62,50.96 8.4,9.96 19.69,14.92 33.87,14.92 10.54,0 19.24,-2.93 25.98,-8.74 6.82,-5.77 11.55,-15.73 14.36,-29.9l55 8.99c-5.7,24.17 -16.62,42.46 -32.79,54.82 -16.18,12.33 -37.86,18.51 -65.11,18.51 -30.82,0 -55.48,-9.37 -73.83,-28.02 -18.43,-18.73 -27.61,-44.6 -27.61,-77.69 0,-33.49 9.25,-59.51 27.69,-78.16 18.39,-18.65 43.34,-27.95 74.8,-27.95 25.69,0 46.12,5.33 61.37,15.92 15.14,10.59 25.99,26.72 32.68,48.45zm-155.52 216.9l0 -22.36c13.69,1.37 26.27,2.08 37.75,2.08 11.85,0 20.65,-2 26.36,-6.11 4.41,-3.07 6.62,-6.97 6.62,-11.85 0,-4.26 -2.04,-8.07 -6.21,-11.26 -4.15,-3.18 -10.51,-4.73 -19.14,-4.73 -8.55,0 -17.25,1.29 -26.25,3.85l5.22 -18.92c10.32,-3.51 21.51,-5.21 33.42,-5.21 16.7,0 29.24,3.51 37.86,10.47 8.62,7.03 13,15.55 13,25.54 0,11.25 -4.77,20.28 -14.33,27.32 -12.92,9.55 -31.38,14.28 -55.48,14.28 -17.1,0 -30.09,-1.04 -38.82,-3.11zm239.54 -214.57l-50.56 -8.58c5.71,-19.77 15.55,-34.38 29.5,-43.86 13.92,-9.52 34.64,-14.26 62.11,-14.26 24.91,0 43.52,2.78 55.77,8.45 12.14,5.66 20.76,12.8 25.73,21.54 4.96,8.7 7.51,24.61 7.51,47.89l-0.82 62.4c0,17.76 0.86,30.9 2.63,39.38 1.77,8.45 5.07,17.47 9.99,27.1l-55.44 0c-1.41,-3.53 -3.26,-8.71 -5.37,-15.62 -0.88,-3.15 -1.55,-5.26 -1.96,-6.22 -9.55,8.96 -19.72,15.65 -30.57,20.18 -10.88,4.48 -22.43,6.74 -34.75,6.74 -21.65,0 -38.79,-5.67 -51.26,-16.99 -12.52,-11.22 -18.77,-25.55 -18.77,-42.83 0,-11.4 2.85,-21.58 8.55,-30.57 5.7,-8.89 13.66,-15.8 23.98,-20.54 10.25,-4.73 25.05,-8.92 44.45,-12.47 26.09,-4.7 44.23,-9.11 54.26,-13.14l0 -5.4c0,-10.41 -2.63,-17.8 -7.92,-22.28 -5.37,-4.41 -15.43,-6.66 -30.16,-6.66 -10,0 -17.77,1.89 -23.32,5.74 -5.62,3.78 -10.1,10.47 -13.59,20.02zm75 43.31c-7.11,2.3 -18.48,4.99 -34.01,8.18 -15.51,3.18 -25.69,6.33 -30.43,9.33 -7.29,4.99 -10.95,11.21 -10.95,18.83 0,7.55 2.92,14 8.77,19.43 5.81,5.48 13.25,8.22 22.27,8.22 10.03,0 19.69,-3.18 28.87,-9.51 6.7,-4.85 11.22,-10.73 13.32,-17.73 1.41,-4.55 2.15,-13.28 2.15,-26.09l0 -10.66zm-72.96 -131.47l-25.68 0c-0.15,-2.92 -0.22,-5.21 -0.22,-6.81 0,-13.36 3.44,-23.62 10.22,-30.75 6.74,-7.22 15.46,-10.82 26.09,-10.82 4.7,0 8.95,0.48 12.99,1.45 4,0.97 11.25,3.7 21.8,8.18 10.59,4.51 18.8,6.77 24.88,6.77 4.22,0 7.73,-1.29 10.58,-3.85 2.93,-2.59 4.7,-6.88 5.49,-12.95l25.68 0c-0.12,17.35 -3.44,29.71 -10,37.19 -6.59,7.48 -14.98,11.17 -25.32,11.17 -4.55,0 -8.99,-0.44 -13.32,-1.33 -3.03,-0.78 -10.66,-3.51 -22.83,-8.14 -12.21,-4.58 -21.07,-6.88 -26.62,-6.88 -4.29,0 -7.54,1.23 -9.91,3.78 -2.44,2.48 -3.66,6.81 -3.82,12.99zm170.04 124.52c0,-17.8 4.58,-35.05 13.73,-51.67 9.18,-16.73 22.17,-29.39 38.93,-38.16 16.77,-8.81 35.46,-13.22 56.18,-13.22 32.02,0 58.19,9.93 78.61,29.84 20.47,19.94 30.65,45.04 30.65,75.47 0,30.72 -10.32,56.15 -30.9,76.29 -20.66,20.17 -46.64,30.24 -77.95,30.24 -19.36,0 -37.82,-4.22 -55.45,-12.62 -17.54,-8.4 -30.9,-20.66 -40.08,-36.9 -9.15,-16.22 -13.73,-35.98 -13.73,-59.26zm57.52 2.84c0,20.1 4.96,35.49 14.85,46.2 10.03,10.73 22.24,16.06 36.87,16.06 14.5,0 26.72,-5.33 36.6,-16.06 9.85,-10.7 14.81,-26.21 14.81,-46.56 0,-19.84 -4.96,-35.13 -14.81,-45.79 -9.87,-10.73 -22.1,-16.06 -36.6,-16.06 -14.63,0 -26.84,5.33 -36.87,16.06 -9.88,10.66 -14.85,26.09 -14.85,46.15zm202.9 47.41l55.86 0 0 38.32c0,15.46 -1.37,27.75 -4.14,36.68 -2.78,8.95 -8.07,17.02 -15.81,24.09 -7.76,7.14 -17.62,12.7 -29.49,16.77l-10.85 -22.2c11.18,-3.6 19.14,-8.48 23.91,-14.73 4.67,-6.15 7.18,-14.66 7.48,-25.46l-26.95 0 0 -53.46zm303.25 53.46l-104.46 -279.34 63.88 0 74.1 206.79 71.13 -206.79 62.81 0 -103.83 279.34 -63.65 0zm296.65 -63.96l55.82 8.95c-7.14,19.55 -18.48,34.47 -33.91,44.72 -15.46,10.21 -34.86,15.36 -58,15.36 -36.78,0 -64.03,-11.51 -81.62,-34.54 -13.91,-18.47 -20.94,-41.75 -20.94,-69.88 0,-33.57 9.18,-59.89 27.46,-78.88 18.29,-19.02 41.45,-28.54 69.43,-28.54 31.39,0 56.19,9.93 74.44,29.84 18.13,19.91 26.8,50.41 26.02,91.49l-139.83 0c0.37,15.84 4.88,28.21 13.5,37.06 8.55,8.84 19.28,13.25 32.06,13.25 8.77,0 16.09,-2.27 22.02,-6.81 5.96,-4.55 10.47,-11.92 13.54,-22.02zm3.22 -54.26c-0.41,-15.55 -4.55,-27.35 -12.47,-35.42 -7.96,-8.11 -17.62,-12.18 -29.02,-12.18 -12.18,0 -22.21,4.33 -30.16,12.84 -7.96,8.48 -11.85,20.13 -11.7,34.76l83.36 0zm293.58 118.22l-55.85 0 0 -103.2c0,-21.83 -1.19,-35.93 -3.6,-42.34 -2.43,-6.4 -6.33,-11.36 -11.76,-14.91 -5.41,-3.6 -11.96,-5.37 -19.55,-5.37 -9.81,0 -18.55,2.55 -26.31,7.63 -7.82,5.07 -13.1,11.85 -15.96,20.17 -2.93,8.37 -4.36,23.84 -4.36,46.49l0 91.54 -55.86 0 0 -202.46 51.79 0 0 29.71c18.54,-22.68 41.86,-34.01 70.06,-34.01 12.36,0 23.72,2.15 33.97,6.37 10.33,4.29 18.07,9.69 23.28,16.28 5.3,6.59 8.96,14.07 11.04,22.47 2.07,8.36 3.11,20.35 3.11,35.93l0 125.7zm250.65 0l-51.78 0 0 -29.72c-8.62,11.58 -18.87,20.21 -30.65,26.09 -11.77,5.77 -23.66,8.7 -35.61,8.7 -24.39,0 -45.23,-9.37 -62.63,-28.17 -17.32,-18.76 -26.02,-44.94 -26.02,-78.54 0,-34.31 8.4,-60.47 25.32,-78.35 16.95,-17.88 38.27,-26.76 64.07,-26.76 23.65,0 44.15,9.4 61.44,28.21l0 -100.79 55.85 0 0 279.34zm-149.23 -105.16c0,21.65 3.15,37.35 9.33,47.05 9.03,14.03 21.61,21.06 37.79,21.06 12.84,0 23.76,-5.26 32.76,-15.8 9.03,-10.55 13.51,-26.21 13.51,-47.12 0,-23.35 -4.38,-40.16 -13.15,-50.41 -8.77,-10.29 -19.87,-15.43 -33.53,-15.43 -13.25,0 -24.35,5.11 -33.31,15.21 -8.89,10.18 -13.4,25.32 -13.4,45.45zm245.77 -34.91l-50.56 -8.58c5.7,-19.77 15.58,-34.38 29.49,-43.86 13.92,-9.52 34.64,-14.26 62.11,-14.26 24.91,0 43.52,2.78 55.77,8.45 12.18,5.66 20.81,12.8 25.73,21.54 4.96,8.7 7.51,24.61 7.51,47.89l-0.81 62.4c0,17.76 0.85,30.9 2.62,39.38 1.77,8.45 5.07,17.47 9.99,27.1l-55.44 0c-1.45,-3.53 -3.26,-8.71 -5.37,-15.62 -0.88,-3.15 -1.55,-5.26 -1.96,-6.22 -9.51,8.96 -19.72,15.65 -30.57,20.18 -10.88,4.48 -22.42,6.74 -34.75,6.74 -21.65,0 -38.79,-5.67 -51.26,-16.99 -12.52,-11.22 -18.77,-25.55 -18.77,-42.83 0,-11.4 2.85,-21.58 8.59,-30.57 5.66,-8.89 13.62,-15.8 23.94,-20.54 10.25,-4.73 25.1,-8.92 44.45,-12.47 26.09,-4.7 44.23,-9.11 54.26,-13.14l0 -5.4c0,-10.41 -2.63,-17.8 -7.92,-22.28 -5.37,-4.41 -15.43,-6.66 -30.16,-6.66 -10,0 -17.73,1.89 -23.32,5.74 -5.62,3.78 -10.1,10.47 -13.58,20.02zm74.98 43.31c-7.11,2.3 -18.48,4.99 -34.06,8.18 -15.46,3.18 -25.65,6.33 -30.38,9.33 -7.29,4.99 -10.95,11.21 -10.95,18.83 0,7.55 2.92,14 8.77,19.43 5.84,5.48 13.25,8.22 22.28,8.22 10.03,0 19.68,-3.18 28.86,-9.51 6.7,-4.85 11.22,-10.73 13.32,-17.73 1.41,-4.55 2.15,-13.28 2.15,-26.09l0 -10.66zm345.69 32.8l55.86 8.95c-7.14,19.55 -18.48,34.47 -33.91,44.72 -15.46,10.21 -34.82,15.36 -58,15.36 -36.78,0 -64.03,-11.51 -81.62,-34.54 -13.95,-18.47 -20.94,-41.75 -20.94,-69.88 0,-33.57 9.18,-59.89 27.46,-78.88 18.29,-19.02 41.45,-28.54 69.43,-28.54 31.39,0 56.19,9.93 74.4,29.84 18.14,19.91 26.84,50.41 26.02,91.49l-139.83 0c0.41,15.84 4.93,28.21 13.56,37.06 8.54,8.84 19.27,13.25 32.05,13.25 8.77,0 16.09,-2.27 22.02,-6.81 5.99,-4.55 10.43,-11.92 13.5,-22.02zm3.26 -54.26c-0.41,-15.55 -4.55,-27.35 -12.52,-35.42 -7.92,-8.11 -17.57,-12.18 -28.98,-12.18 -12.18,0 -22.24,4.33 -30.16,12.84 -7.96,8.48 -11.85,20.13 -11.7,34.76l83.36 0zm216.49 118.22l0 -277 59.07 0 0 229.77 146.35 0 0 47.23 -205.42 0zm233.88 -103.71c0,-17.8 4.55,-35.05 13.72,-51.67 9.18,-16.73 22.18,-29.39 38.95,-38.16 16.8,-8.81 35.45,-13.22 56.18,-13.22 32.01,0 58.15,9.93 78.61,29.84 20.43,19.94 30.65,45.04 30.65,75.47 0,30.72 -10.32,56.15 -30.91,76.29 -20.65,20.17 -46.64,30.24 -77.94,30.24 -19.36,0 -37.83,-4.22 -55.45,-12.62 -17.54,-8.4 -30.91,-20.66 -40.09,-36.9 -9.17,-16.22 -13.72,-35.98 -13.72,-59.26zm57.47 2.84c0,20.1 5,35.49 14.92,46.2 9.96,10.73 22.21,16.06 36.79,16.06 14.54,0 26.75,-5.33 36.64,-16.06 9.85,-10.7 14.8,-26.21 14.8,-46.56 0,-19.84 -4.95,-35.13 -14.8,-45.79 -9.88,-10.73 -22.1,-16.06 -36.64,-16.06 -14.58,0 -26.84,5.33 -36.79,16.06 -9.91,10.66 -14.92,26.09 -14.92,46.15zm388.86 -41.53l-55.04 9.37c-1.85,-10.48 -6.06,-18.36 -12.65,-23.69 -6.59,-5.26 -15.1,-7.92 -25.54,-7.92 -13.92,0 -25.06,4.63 -33.35,13.84 -8.29,9.25 -12.43,24.66 -12.43,46.31 0,24.06 4.22,41.04 12.65,50.96 8.4,9.96 19.66,14.92 33.79,14.92 10.63,0 19.33,-2.93 26.02,-8.74 6.81,-5.77 11.58,-15.73 14.36,-29.9l55.04 8.99c-5.7,24.17 -16.66,42.46 -32.83,54.82 -16.18,12.33 -37.83,18.51 -65.07,18.51 -30.87,0 -55.52,-9.37 -73.88,-28.02 -18.39,-18.73 -27.57,-44.6 -27.57,-77.69 0,-33.49 9.25,-59.51 27.65,-78.16 18.4,-18.65 43.34,-27.95 74.81,-27.95 25.68,0 46.12,5.33 61.37,15.92 15.14,10.59 25.99,26.72 32.68,48.45zm84.02 2.33l-50.56 -8.58c5.74,-19.77 15.58,-34.38 29.5,-43.86 13.91,-9.52 34.68,-14.26 62.11,-14.26 24.94,0 43.52,2.78 55.77,8.45 12.18,5.66 20.79,12.8 25.76,21.54 4.96,8.7 7.48,24.61 7.48,47.89l-0.82 62.4c0,17.76 0.89,30.9 2.63,39.38 1.77,8.45 5.11,17.47 9.99,27.1l-55.44 0c-1.41,-3.53 -3.26,-8.71 -5.37,-15.62 -0.85,-3.15 -1.55,-5.26 -1.96,-6.22 -9.52,8.96 -19.72,15.65 -30.57,20.18 -10.88,4.48 -22.43,6.74 -34.72,6.74 -21.69,0 -38.79,-5.67 -51.29,-16.99 -12.52,-11.22 -18.77,-25.55 -18.77,-42.83 0,-11.4 2.85,-21.58 8.58,-30.57 5.67,-8.89 13.66,-15.8 23.98,-20.54 10.26,-4.73 25.06,-8.92 44.42,-12.47 26.09,-4.7 44.22,-9.11 54.29,-13.14l0 -5.4c0,-10.41 -2.62,-17.8 -7.95,-22.28 -5.37,-4.41 -15.44,-6.66 -30.17,-6.66 -9.99,0 -17.72,1.89 -23.28,5.74 -5.66,3.78 -10.14,10.47 -13.62,20.02zm75.03 43.31c-7.14,2.3 -18.47,4.99 -34.06,8.18 -15.46,3.18 -25.68,6.33 -30.42,9.33 -7.26,4.99 -10.96,11.21 -10.96,18.83 0,7.55 2.93,14 8.77,19.43 5.85,5.48 13.25,8.22 22.28,8.22 10.07,0 19.69,-3.18 28.9,-9.51 6.7,-4.85 11.18,-10.73 13.29,-17.73 1.44,-4.55 2.18,-13.28 2.18,-26.09l0 -10.66zm294.4 -45.64l-55.04 9.37c-1.85,-10.48 -6.06,-18.36 -12.65,-23.69 -6.59,-5.26 -15.07,-7.92 -25.55,-7.92 -13.91,0 -25.05,4.63 -33.34,13.84 -8.29,9.25 -12.43,24.66 -12.43,46.31 0,24.06 4.22,41.04 12.65,50.96 8.4,9.96 19.65,14.92 33.84,14.92 10.58,0 19.27,-2.93 25.98,-8.74 6.81,-5.77 11.58,-15.73 14.36,-29.9l55.04 8.99c-5.71,24.17 -16.66,42.46 -32.84,54.82 -16.17,12.33 -37.82,18.51 -65.06,18.51 -30.88,0 -55.52,-9.37 -73.88,-28.02 -18.39,-18.73 -27.61,-44.6 -27.61,-77.69 0,-33.49 9.25,-59.51 27.69,-78.16 18.4,-18.65 43.34,-27.95 74.81,-27.95 25.68,0 46.11,5.33 61.37,15.92 15.14,10.59 25.98,26.72 32.68,48.45zm-155.53 216.9l0 -22.36c13.7,1.37 26.28,2.08 37.76,2.08 11.83,0 20.65,-2 26.39,-6.11 4.41,-3.07 6.59,-6.97 6.59,-11.85 0,-4.26 -2.04,-8.07 -6.22,-11.26 -4.14,-3.18 -10.51,-4.73 -19.14,-4.73 -8.55,0 -17.25,1.29 -26.24,3.85l5.26 -18.92c10.32,-3.51 21.47,-5.21 33.43,-5.21 16.65,0 29.2,3.51 37.86,10.47 8.62,7.03 12.95,15.55 12.95,25.54 0,11.25 -4.73,20.28 -14.32,27.32 -12.92,9.55 -31.39,14.28 -55.45,14.28 -17.09,0 -30.12,-1.04 -38.86,-3.11zm239.55 -214.57l-50.56 -8.58c5.74,-19.77 15.58,-34.38 29.5,-43.86 13.91,-9.52 34.64,-14.26 62.1,-14.26 24.95,0 43.57,2.78 55.78,8.45 12.17,5.66 20.79,12.8 25.76,21.54 4.96,8.7 7.48,24.61 7.48,47.89l-0.82 62.4c0,17.76 0.85,30.9 2.62,39.38 1.78,8.45 5.11,17.47 10,27.1l-55.45 0c-1.41,-3.53 -3.25,-8.71 -5.36,-15.62 -0.89,-3.15 -1.55,-5.26 -1.96,-6.22 -9.52,8.96 -19.72,15.65 -30.57,20.18 -10.88,4.48 -22.43,6.74 -34.72,6.74 -21.69,0 -38.79,-5.67 -51.3,-16.99 -12.51,-11.22 -18.76,-25.55 -18.76,-42.83 0,-11.4 2.84,-21.58 8.58,-30.57 5.71,-8.89 13.62,-15.8 23.98,-20.54 10.25,-4.73 25.06,-8.92 44.42,-12.47 26.09,-4.7 44.22,-9.11 54.29,-13.14l0 -5.4c0,-10.41 -2.63,-17.8 -7.96,-22.28 -5.36,-4.41 -15.43,-6.66 -30.16,-6.66 -9.99,0 -17.73,1.89 -23.31,5.74 -5.63,3.78 -10.1,10.47 -13.59,20.02zm75.03 43.31c-7.14,2.3 -18.51,4.99 -34.06,8.18 -15.46,3.18 -25.68,6.33 -30.43,9.33 -7.29,4.99 -10.95,11.21 -10.95,18.83 0,7.55 2.93,14 8.77,19.43 5.85,5.48 13.25,8.22 22.28,8.22 10.07,0 19.69,-3.18 28.87,-9.51 6.74,-4.85 11.22,-10.73 13.32,-17.73 1.44,-4.55 2.18,-13.28 2.18,-26.09l0 -10.66zm-72.95 -131.47l-25.73 0c-0.12,-2.92 -0.19,-5.21 -0.19,-6.81 0,-13.36 3.41,-23.62 10.22,-30.75 6.69,-7.22 15.46,-10.82 26.05,-10.82 4.7,0 8.96,0.48 13,1.45 4,0.97 11.29,3.7 21.79,8.18 10.63,4.51 18.84,6.77 24.88,6.77 4.22,0 7.73,-1.29 10.59,-3.85 2.93,-2.59 4.7,-6.88 5.52,-12.95l25.68 0c-0.15,17.35 -3.48,29.71 -10,37.19 -6.58,7.48 -15.02,11.17 -25.35,11.17 -4.55,0 -8.96,-0.44 -13.29,-1.33 -3.06,-0.78 -10.66,-3.51 -22.83,-8.14 -12.25,-4.58 -21.06,-6.88 -26.65,-6.88 -4.29,0 -7.55,1.23 -9.93,3.78 -2.43,2.48 -3.66,6.81 -3.77,12.99zm170.03 124.52c0,-17.8 4.55,-35.05 13.73,-51.67 9.18,-16.73 22.14,-29.39 38.9,-38.16 16.8,-8.81 35.49,-13.22 56.21,-13.22 31.98,0 58.16,9.93 78.61,29.84 20.44,19.94 30.61,45.04 30.61,75.47 0,30.72 -10.32,56.15 -30.91,76.29 -20.65,20.17 -46.59,30.24 -77.94,30.24 -19.33,0 -37.83,-4.22 -55.41,-12.62 -17.55,-8.4 -30.91,-20.66 -40.09,-36.9 -9.18,-16.22 -13.73,-35.98 -13.73,-59.26zm57.48 2.84c0,20.1 4.96,35.49 14.88,46.2 9.99,10.73 22.21,16.06 36.83,16.06 14.55,0 26.76,-5.33 36.61,-16.06 9.84,-10.7 14.8,-26.21 14.8,-46.56 0,-19.84 -4.96,-35.13 -14.8,-45.79 -9.84,-10.73 -22.05,-16.06 -36.61,-16.06 -14.62,0 -26.84,5.33 -36.83,16.06 -9.91,10.66 -14.88,26.09 -14.88,46.15zm511.84 100.87l-51.78 0 0 -29.72c-8.62,11.58 -18.87,20.21 -30.65,26.09 -11.73,5.77 -23.62,8.7 -35.57,8.7 -24.39,0 -45.27,-9.37 -62.63,-28.17 -17.36,-18.76 -26.02,-44.94 -26.02,-78.54 0,-34.31 8.4,-60.47 25.32,-78.35 16.91,-17.88 38.23,-26.76 64.06,-26.76 23.62,0 44.16,9.4 61.45,28.21l0 -100.79 55.81 0 0 279.34zm-149.19 -105.16c0,21.65 3.11,37.35 9.29,47.05 9.08,14.03 21.65,21.06 37.79,21.06 12.84,0 23.81,-5.26 32.76,-15.8 9.08,-10.55 13.56,-26.21 13.56,-47.12 0,-23.35 -4.38,-40.16 -13.15,-50.41 -8.77,-10.29 -19.87,-15.43 -33.56,-15.43 -13.25,0 -24.32,5.11 -33.28,15.21 -8.92,10.18 -13.4,25.32 -13.4,45.45zm326.45 41.2l55.85 8.95c-7.13,19.55 -18.47,34.47 -33.87,44.72 -15.51,10.21 -34.86,15.36 -58.03,15.36 -36.79,0 -64,-11.51 -81.62,-34.54 -13.91,-18.47 -20.95,-41.75 -20.95,-69.88 0,-33.57 9.22,-59.89 27.47,-78.88 18.29,-19.02 41.45,-28.54 69.43,-28.54 31.39,0 56.23,9.93 74.4,29.84 18.14,19.91 26.84,50.41 26.06,91.49l-139.83 0c0.4,15.84 4.88,28.21 13.5,37.06 8.55,8.84 19.28,13.25 32.05,13.25 8.77,0 16.1,-2.27 22.02,-6.81 6,-4.55 10.48,-11.92 13.51,-22.02zm3.25 -54.26c-0.4,-15.55 -4.54,-27.35 -12.46,-35.42 -7.96,-8.11 -17.58,-12.18 -29.02,-12.18 -12.18,0 -22.21,4.33 -30.16,12.84 -7.96,8.48 -11.85,20.13 -11.7,34.76l83.35 0zm212.79 118.22l0 -279.34 59.14 0 0 279.34 -59.14 0zm110.81 -202.46l51.37 0 0 27.6c18.43,-21.25 40.38,-31.91 65.85,-31.91 13.54,0 25.29,2.66 35.2,7.99 10,5.33 18.14,13.4 24.47,24.17 9.3,-10.78 19.36,-18.84 30.09,-24.17 10.73,-5.33 22.21,-7.99 34.45,-7.99 15.48,0 28.58,3 39.39,9.03 10.73,6.03 18.77,14.88 24.06,26.58 3.89,8.62 5.77,22.58 5.77,41.9l0 129.25 -55.85 0 0 -115.56c0,-20.06 -1.89,-33.02 -5.77,-38.79 -5.15,-7.63 -13.18,-11.48 -23.91,-11.48 -7.82,0 -15.21,2.3 -22.14,6.85 -6.88,4.63 -11.92,11.29 -14.95,20.09 -3.07,8.84 -4.55,22.77 -4.55,41.79l0 97.09 -55.85 0 0 -110.78c0,-19.65 -1.04,-32.39 -3,-38.05 -1.96,-5.73 -5.04,-9.99 -9.25,-12.8 -4.11,-2.81 -9.85,-4.19 -16.95,-4.19 -8.66,0 -16.36,2.26 -23.24,6.66 -6.97,4.48 -11.85,10.85 -14.8,19.25 -3,8.36 -4.52,22.27 -4.52,41.67l0 98.23 -55.85 0 0 -202.46zm364.95 0l52.19 0 0 29.71c6.81,-10.18 15.87,-18.35 27.46,-24.65 11.52,-6.25 24.36,-9.37 38.42,-9.37 24.54,0 45.42,9.25 62.52,27.69 17.13,18.39 25.68,44.16 25.68,77.06 0,33.87 -8.62,60.15 -25.87,78.91 -17.25,18.8 -38.2,28.17 -62.77,28.17 -11.7,0 -22.32,-2.22 -31.83,-6.7 -9.44,-4.41 -19.5,-12.02 -29.94,-22.83l0 101.3 -55.85 0 0 -279.29zm55.03 98.12c0,22.8 4.71,39.64 14.14,50.56 9.37,10.88 20.84,16.31 34.31,16.31 12.96,0 23.76,-4.99 32.39,-15.02 8.62,-9.99 12.92,-26.39 12.92,-49.19 0,-21.36 -4.4,-37.13 -13.32,-47.49 -8.8,-10.33 -19.84,-15.48 -32.93,-15.48 -13.66,0 -25.02,5.07 -33.98,15.24 -9.03,10.1 -13.51,25.14 -13.51,45.05z"/>
   <path class="fil4" d="M7393.5 2537.29l-55.85 0 0 -202.46 51.78 0 0 28.72c8.89,-13.59 16.91,-22.46 24.06,-26.72 7.1,-4.22 15.21,-6.3 24.25,-6.3 12.77,0 25.09,3.37 36.9,10.07l-17.32 46.67c-9.44,-5.84 -18.21,-8.77 -26.31,-8.77 -7.89,0 -14.55,2.08 -19.96,6.18 -5.43,4.19 -9.74,11.59 -12.84,22.4 -3.15,10.76 -4.7,33.38 -4.7,67.81l0 62.4zm227.56 -63.96l55.85 8.95c-7.14,19.55 -18.47,34.47 -33.9,44.72 -15.48,10.21 -34.86,15.36 -58.04,15.36 -36.75,0 -63.99,-11.51 -81.57,-34.54 -13.92,-18.47 -20.95,-41.75 -20.95,-69.88 0,-33.57 9.18,-59.89 27.47,-78.88 18.29,-19.02 41.45,-28.54 69.43,-28.54 31.38,0 56.18,9.93 74.4,29.84 18.13,19.91 26.83,50.41 26.02,91.49l-139.83 0c0.41,15.84 4.88,28.21 13.5,37.06 8.59,8.84 19.33,13.25 32.09,13.25 8.77,0 16.1,-2.27 22.02,-6.81 5.96,-4.55 10.44,-11.92 13.51,-22.02zm3.25 -54.26c-0.41,-15.55 -4.55,-27.35 -12.51,-35.42 -7.96,-8.11 -17.58,-12.18 -28.98,-12.18 -12.18,0 -22.25,4.33 -30.21,12.84 -7.92,8.48 -11.81,20.13 -11.7,34.76l83.39 0zm81.17 61.25l56.26 -8.17c2.4,10.32 7.22,18.2 14.54,23.53 7.26,5.37 17.54,8.07 30.65,8.07 14.48,0 25.36,-2.55 32.68,-7.62 4.89,-3.56 7.37,-8.37 7.37,-14.36 0,-4.04 -1.36,-7.41 -4.03,-10.1 -2.78,-2.52 -9.03,-4.92 -18.7,-7.07 -45.16,-9.55 -73.77,-18.29 -85.86,-26.13 -16.77,-10.98 -25.14,-26.2 -25.14,-45.67 0,-17.62 7.26,-32.35 21.73,-44.31 14.48,-11.99 36.9,-17.95 67.25,-17.95 28.98,0 50.53,4.55 64.56,13.59 14.06,9.11 23.8,22.5 29.08,40.24l-52.6 9.36c-2.21,-7.92 -6.58,-14.03 -12.92,-18.25 -6.28,-4.26 -15.32,-6.33 -27.09,-6.33 -14.8,0 -25.43,1.96 -31.86,5.92 -4.3,2.81 -6.37,6.44 -6.37,10.85 0,3.85 1.82,7.1 5.55,9.77 5.11,3.59 22.54,8.59 52.45,15.11 29.9,6.47 50.78,14.43 62.58,23.83 11.74,9.52 17.62,22.84 17.62,39.87 0,18.54 -8.1,34.53 -24.35,47.85 -16.17,13.32 -40.15,20.03 -71.95,20.03 -28.79,0 -51.63,-5.59 -68.47,-16.69 -16.81,-11.14 -27.8,-26.24 -32.98,-45.35zm226.74 0l56.26 -8.17c2.37,10.32 7.22,18.2 14.54,23.53 7.26,5.37 17.55,8.07 30.65,8.07 14.44,0 25.32,-2.55 32.65,-7.62 4.92,-3.56 7.37,-8.37 7.37,-14.36 0,-4.04 -1.37,-7.41 -4.04,-10.1 -2.77,-2.52 -9.02,-4.92 -18.69,-7.07 -45.16,-9.55 -73.77,-18.29 -85.83,-26.13 -16.81,-10.98 -25.17,-26.2 -25.17,-45.67 0,-17.62 7.29,-32.35 21.73,-44.31 14.47,-11.99 36.94,-17.95 67.28,-17.95 28.95,0 50.49,4.55 64.56,13.59 14.06,9.11 23.8,22.5 29.05,40.24l-52.55 9.36c-2.27,-7.92 -6.59,-14.03 -12.93,-18.25 -6.33,-4.26 -15.36,-6.33 -27.12,-6.33 -14.81,0 -25.39,1.96 -31.83,5.92 -4.3,2.81 -6.41,6.44 -6.41,10.85 0,3.85 1.82,7.1 5.56,9.77 5.14,3.59 22.58,8.59 52.48,15.11 29.9,6.47 50.75,14.43 62.58,23.83 11.74,9.52 17.58,22.84 17.58,39.87 0,18.54 -8.1,34.53 -24.32,47.85 -16.21,13.32 -40.15,20.03 -71.95,20.03 -28.79,0 -51.66,-5.59 -68.51,-16.69 -16.77,-11.14 -27.79,-26.24 -32.93,-45.35zm233.66 -46.74c0,-17.8 4.55,-35.05 13.69,-51.67 9.21,-16.73 22.17,-29.39 38.93,-38.16 16.77,-8.81 35.49,-13.22 56.23,-13.22 31.98,0 58.15,9.93 78.57,29.84 20.47,19.94 30.65,45.04 30.65,75.47 0,30.72 -10.32,56.15 -30.9,76.29 -20.66,20.17 -46.64,30.24 -77.95,30.24 -19.32,0 -37.82,-4.22 -55.41,-12.62 -17.54,-8.4 -30.91,-20.66 -40.12,-36.9 -9.14,-16.22 -13.69,-35.98 -13.69,-59.26zm57.47 2.84c0,20.1 4.96,35.49 14.88,46.2 9.96,10.73 22.21,16.06 36.84,16.06 14.5,0 26.75,-5.33 36.61,-16.06 9.84,-10.7 14.8,-26.21 14.8,-46.56 0,-19.84 -4.96,-35.13 -14.8,-45.79 -9.85,-10.73 -22.11,-16.06 -36.61,-16.06 -14.63,0 -26.88,5.33 -36.84,16.06 -9.91,10.66 -14.88,26.09 -14.88,46.15zm257.98 100.87l-55.86 0 0 -202.46 51.75 0 0 28.72c8.92,-13.59 16.91,-22.46 24.06,-26.72 7.14,-4.22 15.21,-6.3 24.25,-6.3 12.81,0 25.1,3.37 36.9,10.07l-17.32 46.67c-9.43,-5.84 -18.2,-8.77 -26.28,-8.77 -7.88,0 -14.54,2.08 -19.99,6.18 -5.43,4.19 -9.69,11.59 -12.84,22.4 -3.15,10.76 -4.66,33.38 -4.66,67.81l0 62.4zm146.83 -140.07l-50.56 -8.58c5.7,-19.77 15.58,-34.38 29.49,-43.86 13.92,-9.52 34.64,-14.26 62.07,-14.26 24.95,0 43.57,2.78 55.78,8.45 12.17,5.66 20.79,12.8 25.76,21.54 4.96,8.7 7.48,24.61 7.48,47.89l-0.82 62.4c0,17.76 0.89,30.9 2.66,39.38 1.77,8.45 5.11,17.47 10,27.1l-55.45 0c-1.45,-3.53 -3.26,-8.71 -5.37,-15.62 -0.92,-3.15 -1.58,-5.26 -1.99,-6.22 -9.52,8.96 -19.69,15.65 -30.57,20.18 -10.85,4.48 -22.43,6.74 -34.72,6.74 -21.65,0 -38.79,-5.67 -51.3,-16.99 -12.51,-11.22 -18.73,-25.55 -18.73,-42.83 0,-11.4 2.85,-21.58 8.55,-30.57 5.71,-8.89 13.66,-15.8 23.98,-20.54 10.25,-4.73 25.06,-8.92 44.42,-12.47 26.12,-4.7 44.26,-9.11 54.29,-13.14l0 -5.4c0,-10.41 -2.63,-17.8 -7.96,-22.28 -5.36,-4.41 -15.39,-6.66 -30.12,-6.66 -10,0 -17.77,1.89 -23.32,5.74 -5.67,3.78 -10.14,10.47 -13.58,20.02zm74.98 43.31c-7.14,2.3 -18.48,4.99 -34.06,8.18 -15.46,3.18 -25.64,6.33 -30.43,9.33 -7.25,4.99 -10.91,11.21 -10.91,18.83 0,7.55 2.89,14 8.73,19.43 5.85,5.48 13.25,8.22 22.33,8.22 10.03,0 19.65,-3.18 28.86,-9.51 6.7,-4.85 11.22,-10.73 13.29,-17.73 1.44,-4.55 2.18,-13.28 2.18,-26.09l0 -10.66zm90.16 39.78l56.27 -8.17c2.36,10.32 7.18,18.2 14.54,23.53 7.26,5.37 17.54,8.07 30.61,8.07 14.5,0 25.35,-2.55 32.68,-7.62 4.92,-3.56 7.37,-8.37 7.37,-14.36 0,-4.04 -1.37,-7.41 -4,-10.1 -2.81,-2.52 -9.08,-4.92 -18.73,-7.07 -45.16,-9.55 -73.77,-18.29 -85.88,-26.13 -16.77,-10.98 -25.13,-26.2 -25.13,-45.67 0,-17.62 7.25,-32.35 21.73,-44.31 14.5,-11.99 36.93,-17.95 67.28,-17.95 28.95,0 50.49,4.55 64.56,13.59 14.03,9.11 23.75,22.5 29.05,40.24l-52.56 9.36c-2.26,-7.92 -6.59,-14.03 -12.92,-18.25 -6.3,-4.26 -15.36,-6.33 -27.13,-6.33 -14.8,0 -25.39,1.96 -31.83,5.92 -4.32,2.81 -6.4,6.44 -6.4,10.85 0,3.85 1.86,7.1 5.55,9.77 5.11,3.59 22.58,8.59 52.49,15.11 29.87,6.47 50.74,14.43 62.55,23.83 11.76,9.52 17.62,22.84 17.62,39.87 0,18.54 -8.11,34.53 -24.35,47.85 -16.18,13.32 -40.13,20.03 -71.95,20.03 -28.8,0 -51.64,-5.59 -68.48,-16.69 -16.77,-11.14 -27.76,-26.24 -32.94,-45.35z"/>
  </g>
 </g>
</svg>
